<?xml version="1.0" encoding="UTF-8"?><svg id="Layer_1" xmlns="http://www.w3.org/2000/svg" viewBox="0 0 323.36 80"><defs><style>.cls-1{fill:none;stroke:#2483c5;stroke-miterlimit:10;stroke-width:0px;}.cls-2{fill:#2483c5;}</style></defs><rect class="cls-1" width="323.36" height="80"/><g><rect class="cls-2" x="14.85" y="55.93" width="10.33" height=".79"/><polygon class="cls-2" points="14.85 54.63 14.85 53.4 25.1 53.4 25.14 54.63 14.85 54.63"/><polygon class="cls-2" points="14.85 52.08 14.85 50.39 25.03 50.39 25.06 52.08 14.85 52.08"/><polygon class="cls-2" points="14.85 49.06 14.85 46.62 24.92 46.62 24.97 49.06 14.85 49.06"/><polygon class="cls-2" points="14.85 45.33 14.85 41.54 44.59 41.54 44.59 45.33 26.9 45.33 24.78 41.84 24.87 45.33 14.85 45.33"/><polygon class="cls-2" points="14.85 40.24 14.85 35.55 32.3 35.55 34.68 39.59 34.7 35.55 44.59 35.55 44.59 40.24 14.85 40.24"/><polygon class="cls-2" points="14.85 34.23 14.85 25.24 26.25 25.24 31.52 34.23 14.85 34.23"/><polygon class="cls-2" points="34.71 34.23 34.75 25.24 44.59 25.24 44.59 34.23 34.71 34.23"/><polygon class="cls-2" points="44.59 46.62 44.59 49.07 29.21 49.07 27.71 46.62 44.59 46.62"/><polygon class="cls-2" points="44.59 50.39 44.59 52.08 31.02 52.08 29.99 50.39 44.59 50.39"/><polygon class="cls-2" points="44.59 53.4 44.59 54.63 32.57 54.63 31.83 53.4 44.59 53.4"/><polygon class="cls-2" points="44.59 55.93 44.59 56.73 33.69 56.73 33.37 55.93 44.59 55.93"/><rect class="cls-2" x="47.41" y="55.93" width="10.32" height=".79"/><rect class="cls-2" x="47.41" y="53.4" width="10.32" height="1.23"/><rect class="cls-2" x="47.41" y="50.39" width="10.32" height="1.69"/><rect class="cls-2" x="47.41" y="46.62" width="10.32" height="2.44"/><rect class="cls-2" x="47.41" y="41.54" width="10.32" height="3.79"/><rect class="cls-2" x="47.41" y="35.55" width="10.32" height="4.69"/><rect class="cls-2" x="47.41" y="25.24" width="10.32" height="8.99"/><path class="cls-2" d="M75.47,24.55h5.48v9.68h-19.95c2.47-5.68,8.03-9.68,14.47-9.68"/><path class="cls-2" d="M72.09,35.55c-1.22,1.1-2.03,2.79-2.06,4.69h-10.4c.07-1.63,.37-3.2,.87-4.69h11.59Z"/><path class="cls-2" d="M70.13,41.54c.26,1.55,1.02,2.88,2.06,3.79h-11.93c-.33-1.2-.54-2.48-.59-3.79h10.46Z"/><path class="cls-2" d="M80.95,46.62v2.45h-19.15c-.43-.77-.83-1.58-1.13-2.45h20.29Z"/><path class="cls-2" d="M80.95,50.39v1.69h-16.96c-.5-.52-.94-1.1-1.36-1.69h18.32Z"/><path class="cls-2" d="M80.95,53.4v1.23h-13.97c-.57-.39-1.11-.78-1.63-1.23h15.6Z"/><path class="cls-2" d="M80.95,55.93v.68h-9.34s-.31,.12-2.17-.68h11.51Z"/><polygon class="cls-2" points="88.05 42.97 90.84 42.97 95.9 52.6 95.9 42.97 98.38 42.97 98.38 56.78 95.72 56.78 90.53 46.98 90.53 56.78 88.05 56.78 88.05 42.97"/><path class="cls-2" d="M104.24,50.57c.46-.06,.79-.14,.98-.23,.35-.16,.53-.42,.53-.76,0-.42-.14-.71-.41-.86-.27-.16-.67-.24-1.2-.24-.59,0-1.01,.16-1.25,.47-.18,.23-.29,.54-.35,.94h-2.38c.05-.89,.28-1.63,.69-2.2,.65-.9,1.78-1.35,3.37-1.35,1.03,0,1.96,.22,2.76,.66,.81,.44,1.21,1.28,1.21,2.51v4.68c0,.32,0,.72,.02,1.18,.02,.35,.07,.59,.15,.71,.08,.12,.2,.23,.36,.31v.39h-2.68c-.07-.21-.13-.4-.16-.58-.03-.18-.05-.39-.07-.62-.34,.4-.74,.74-1.18,1.02-.53,.33-1.14,.49-1.81,.49-.86,0-1.57-.26-2.13-.79-.56-.53-.84-1.28-.84-2.24,0-1.25,.45-2.16,1.35-2.72,.49-.31,1.22-.53,2.18-.66l.84-.11Zm1.51,1.25c-.16,.11-.32,.19-.48,.26-.16,.07-.38,.13-.66,.18l-.56,.11c-.53,.1-.9,.22-1.13,.37-.39,.24-.58,.62-.58,1.13,0,.45,.12,.79,.36,.99,.24,.2,.53,.3,.86,.3,.54,0,1.04-.17,1.49-.5,.45-.34,.69-.95,.71-1.84v-.99Z"/><path class="cls-2" d="M109.21,48.56v-1.9h1.31v-2.85h2.44v2.85h1.53v1.9h-1.53v5.39c0,.42,.05,.68,.15,.78,.1,.1,.4,.15,.9,.15,.07,0,.15,0,.24,0,.08,0,.16,0,.25-.02v2l-1.17,.05c-1.16,.04-1.96-.17-2.39-.65-.28-.31-.41-.78-.41-1.41v-6.29h-1.31Z"/><path class="cls-2" d="M118.74,45.35h-2.5v-2.46h2.5v2.46Zm-2.5,1.22h2.5v10.21h-2.5v-10.21Z"/><path class="cls-2" d="M128.5,55.53c-.8,1.06-2,1.59-3.62,1.59s-2.83-.53-3.62-1.59c-.8-1.06-1.19-2.35-1.19-3.84s.4-2.75,1.19-3.83c.79-1.08,2-1.62,3.62-1.62s2.83,.54,3.62,1.62c.8,1.08,1.19,2.35,1.19,3.83s-.4,2.78-1.19,3.84m-1.97-1.48c.38-.55,.58-1.34,.58-2.37s-.19-1.81-.58-2.36c-.39-.55-.94-.83-1.66-.83s-1.28,.28-1.67,.83c-.39,.55-.58,1.34-.58,2.36s.2,1.81,.58,2.37c.39,.55,.94,.83,1.67,.83s1.27-.28,1.66-.83"/><path class="cls-2" d="M138.88,47.15c.62,.55,.93,1.47,.93,2.75v6.87h-2.53v-6.21c0-.54-.07-.95-.2-1.24-.24-.53-.7-.79-1.38-.79-.83,0-1.4,.38-1.71,1.15-.16,.41-.24,.93-.24,1.56v5.53h-2.47v-10.19h2.39v1.49c.32-.53,.61-.9,.9-1.13,.5-.41,1.14-.62,1.92-.62,.97,0,1.76,.28,2.38,.83"/><path class="cls-2" d="M145.66,50.57c.46-.06,.78-.14,.98-.23,.35-.16,.53-.42,.53-.76,0-.42-.14-.71-.41-.86-.27-.16-.67-.24-1.2-.24-.59,0-1.01,.16-1.25,.47-.18,.23-.29,.54-.35,.94h-2.38c.05-.89,.28-1.63,.69-2.2,.66-.9,1.78-1.35,3.37-1.35,1.04,0,1.96,.22,2.76,.66,.81,.44,1.21,1.28,1.21,2.51v4.68c0,.32,0,.72,.02,1.18,.02,.35,.07,.59,.15,.71,.08,.12,.2,.23,.36,.31v.39h-2.68c-.08-.21-.13-.4-.16-.58-.03-.18-.05-.39-.07-.62-.34,.4-.74,.74-1.18,1.02-.53,.33-1.14,.49-1.81,.49-.86,0-1.57-.26-2.13-.79-.56-.53-.84-1.28-.84-2.24,0-1.25,.45-2.16,1.35-2.72,.49-.31,1.22-.53,2.18-.66l.85-.11Zm1.51,1.25c-.16,.11-.32,.19-.48,.26-.16,.07-.38,.13-.66,.18l-.56,.11c-.53,.1-.9,.22-1.13,.37-.39,.24-.58,.62-.58,1.13,0,.45,.12,.79,.35,.99,.24,.2,.53,.3,.86,.3,.54,0,1.04-.17,1.49-.5,.45-.34,.69-.95,.7-1.84v-.99Z"/><rect class="cls-2" x="151.65" y="42.97" width="2.46" height="13.81"/><rect class="cls-2" x="159.43" y="43.14" width="2.65" height="13.8"/><path class="cls-2" d="M171.79,47.32c.62,.55,.93,1.47,.93,2.75v6.87h-2.52v-6.21c0-.54-.07-.95-.2-1.24-.24-.52-.7-.79-1.38-.79-.83,0-1.4,.39-1.71,1.15-.16,.41-.24,.92-.24,1.55v5.53h-2.46v-10.19h2.39v1.49c.32-.52,.61-.9,.9-1.13,.51-.41,1.15-.62,1.92-.62,.97,0,1.77,.28,2.38,.83"/><path class="cls-2" d="M178.73,43.02c.13,0,.3,.02,.52,.04v2.17c-.14-.02-.37-.03-.7-.04-.32,0-.55,.07-.67,.24-.12,.16-.18,.35-.18,.55v.86h1.62v1.88h-1.62v8.23h-2.45v-8.23h-1.38v-1.88h1.35v-.65c0-1.09,.17-1.85,.51-2.26,.36-.61,1.22-.92,2.58-.92,.16,0,.3,0,.42,.01"/><path class="cls-2" d="M188.41,55.7c-.8,1.07-2,1.6-3.62,1.6s-2.83-.53-3.62-1.6c-.8-1.06-1.19-2.34-1.19-3.84s.4-2.75,1.19-3.83c.8-1.08,2-1.62,3.62-1.62s2.83,.54,3.62,1.62c.79,1.08,1.19,2.35,1.19,3.83s-.4,2.78-1.19,3.84m-1.97-1.48c.38-.55,.58-1.34,.58-2.36s-.19-1.81-.58-2.36c-.39-.55-.94-.83-1.66-.83s-1.28,.28-1.67,.83c-.39,.55-.59,1.34-.59,2.36s.19,1.81,.59,2.36c.39,.56,.94,.83,1.67,.83s1.27-.28,1.66-.83"/><path class="cls-2" d="M196.42,46.5s.1,0,.21,.02v2.73c-.16-.02-.3-.03-.42-.04-.12,0-.22,0-.29,0-.99,0-1.66,.35-2,1.05-.19,.39-.29,1-.29,1.82v4.88h-2.48v-10.21h2.35v1.78c.38-.68,.71-1.15,.99-1.4,.46-.42,1.06-.63,1.8-.63,.05,0,.08,0,.12,0"/><path class="cls-2" d="M209.66,46.78c.4,.17,.77,.48,1.1,.92,.26,.36,.44,.79,.53,1.31,.06,.35,.09,.85,.09,1.51l-.02,6.43h-2.53v-6.5c0-.38-.06-.7-.17-.95-.22-.47-.62-.71-1.21-.71-.68,0-1.15,.3-1.41,.92-.13,.32-.2,.71-.2,1.17v6.08h-2.48v-6.08c0-.61-.06-1.05-.17-1.32-.21-.49-.61-.74-1.22-.74-.7,0-1.18,.25-1.42,.74-.14,.28-.2,.7-.2,1.25v6.14h-2.5v-10.19h2.39v1.49c.31-.53,.59-.91,.86-1.13,.48-.4,1.1-.6,1.86-.6,.72,0,1.3,.17,1.75,.51,.36,.32,.63,.73,.81,1.23,.32-.6,.72-1.04,1.2-1.32,.51-.28,1.07-.42,1.69-.42,.42,0,.82,.09,1.23,.26"/><path class="cls-2" d="M217.2,50.74c.46-.06,.78-.14,.98-.23,.35-.16,.53-.42,.53-.76,0-.42-.14-.71-.41-.86-.27-.16-.67-.24-1.2-.24-.59,0-1.01,.15-1.25,.47-.18,.23-.29,.54-.35,.94h-2.38c.05-.89,.28-1.63,.7-2.2,.65-.9,1.78-1.35,3.37-1.35,1.04,0,1.96,.22,2.76,.66,.8,.45,1.21,1.28,1.21,2.51v4.68c0,.32,0,.72,.02,1.18,.02,.35,.07,.59,.15,.71,.08,.13,.2,.23,.36,.31v.39h-2.68c-.08-.21-.13-.4-.16-.58-.03-.18-.05-.39-.07-.62-.34,.4-.74,.74-1.18,1.02-.53,.33-1.14,.5-1.81,.5-.86,0-1.57-.26-2.13-.79-.56-.53-.84-1.27-.84-2.24,0-1.26,.45-2.16,1.35-2.72,.5-.31,1.22-.52,2.18-.66l.85-.11Zm1.51,1.25c-.16,.1-.32,.19-.48,.26-.16,.06-.38,.13-.66,.18l-.56,.11c-.53,.1-.9,.22-1.13,.37-.39,.24-.58,.62-.58,1.13,0,.45,.12,.78,.35,.99,.24,.2,.53,.31,.87,.31,.54,0,1.04-.17,1.49-.51,.45-.34,.69-.95,.71-1.85v-.99Z"/><path class="cls-2" d="M222.17,48.73v-1.9h1.32v-2.85h2.44v2.85h1.53v1.9h-1.53v5.39c0,.42,.05,.68,.15,.78,.1,.1,.4,.15,.9,.15,.07,0,.15,0,.24,0,.09,0,.17,0,.25-.02v2l-1.17,.05c-1.17,.04-1.96-.17-2.39-.66-.28-.3-.41-.78-.41-1.41v-6.28h-1.32Z"/><path class="cls-2" d="M231.7,45.52h-2.5v-2.46h2.5v2.46Zm-2.5,1.22h2.5v10.21h-2.5v-10.21Z"/><path class="cls-2" d="M239.24,50.4c-.05-.38-.16-.72-.36-1.03-.28-.41-.71-.62-1.29-.62-.83,0-1.4,.45-1.71,1.34-.16,.47-.24,1.1-.24,1.89s.08,1.35,.24,1.8c.3,.85,.85,1.27,1.67,1.27,.58,0,.99-.17,1.23-.51,.24-.34,.39-.77,.44-1.31h2.52c-.06,.81-.33,1.58-.81,2.3-.77,1.17-1.92,1.75-3.44,1.75s-2.63-.49-3.35-1.46c-.72-.98-1.07-2.24-1.07-3.79,0-1.75,.4-3.11,1.19-4.09,.79-.98,1.88-1.46,3.27-1.46,1.18,0,2.15,.29,2.9,.86,.75,.57,1.2,1.59,1.34,3.04h-2.52Z"/><path class="cls-2" d="M245.19,53.69c.05,.48,.17,.81,.34,1.01,.31,.36,.87,.53,1.7,.53,.49,0,.87-.08,1.16-.23,.29-.16,.43-.39,.43-.7s-.11-.53-.35-.68c-.23-.16-1.09-.43-2.58-.81-1.07-.29-1.83-.65-2.26-1.08-.44-.43-.66-1.04-.66-1.84,0-.94,.34-1.75,1.03-2.43,.68-.68,1.65-1.02,2.89-1.02s2.14,.25,2.88,.76c.74,.51,1.17,1.39,1.28,2.64h-2.46c-.03-.34-.12-.61-.27-.81-.27-.36-.73-.54-1.39-.54-.54,0-.92,.09-1.15,.27-.23,.18-.34,.39-.34,.64,0,.31,.12,.53,.36,.67,.24,.14,1.1,.39,2.57,.74,.98,.25,1.72,.63,2.21,1.13,.48,.51,.73,1.15,.73,1.92,0,1.01-.35,1.84-1.04,2.48-.69,.64-1.77,.96-3.23,.96s-2.58-.34-3.29-1.02c-.71-.68-1.06-1.54-1.06-2.59h2.5Z"/><path class="cls-2" d="M255.96,44.54c1.03-1.13,2.33-1.7,3.92-1.7,2.12,0,3.67,.76,4.65,2.29,.54,.85,.83,1.71,.87,2.58h-2.66c-.17-.66-.39-1.16-.65-1.5-.48-.6-1.18-.9-2.11-.9s-1.7,.42-2.24,1.27c-.55,.85-.82,2.04-.82,3.59s.29,2.71,.87,3.48c.58,.77,1.31,1.16,2.2,1.16s1.61-.33,2.09-.99c.27-.36,.48-.89,.66-1.6h2.65c-.23,1.5-.81,2.73-1.75,3.67-.94,.94-2.14,1.41-3.61,1.41-1.81,0-3.24-.64-4.28-1.91-1.04-1.28-1.56-3.03-1.56-5.26,0-2.41,.59-4.27,1.77-5.57"/><path class="cls-2" d="M273.29,46.9c.66,.32,1.2,.82,1.63,1.51,.39,.6,.64,1.31,.75,2.11,.07,.47,.09,1.14,.08,2.03h-6.86c.04,1.02,.37,1.74,.99,2.15,.38,.26,.83,.38,1.36,.38,.56,0,1.02-.15,1.37-.47,.19-.17,.36-.4,.51-.7h2.52c-.07,.61-.37,1.22-.91,1.84-.85,.99-2.03,1.49-3.55,1.49-1.25,0-2.36-.42-3.32-1.25-.96-.84-1.44-2.2-1.44-4.09,0-1.77,.43-3.12,1.3-4.07,.87-.94,1.99-1.42,3.37-1.42,.82,0,1.56,.16,2.22,.48m-3.69,2.3c-.35,.39-.57,.92-.66,1.58h4.25c-.05-.71-.26-1.25-.66-1.61-.39-.37-.88-.55-1.46-.55-.63,0-1.12,.19-1.47,.58"/><path class="cls-2" d="M284.42,47.28c.62,.56,.93,1.47,.93,2.75v6.88h-2.52v-6.21c0-.54-.07-.95-.2-1.24-.24-.53-.7-.79-1.37-.79-.83,0-1.4,.38-1.71,1.15-.16,.41-.24,.92-.24,1.55v5.53h-2.47v-10.19h2.39v1.49c.32-.53,.62-.9,.9-1.13,.51-.41,1.15-.62,1.92-.62,.97,0,1.76,.28,2.38,.83"/><path class="cls-2" d="M286.49,48.69v-1.9h1.31v-2.85h2.44v2.85h1.53v1.9h-1.53v5.39c0,.42,.05,.68,.15,.78,.1,.1,.4,.16,.9,.16,.08,0,.15,0,.24,0,.08,0,.16,0,.25-.02v2l-1.17,.04c-1.16,.04-1.96-.17-2.39-.65-.27-.3-.41-.78-.41-1.41v-6.29h-1.31Z"/><path class="cls-2" d="M298.42,46.45s.1,0,.21,.01v2.74c-.16-.02-.29-.03-.42-.04-.12,0-.22-.01-.29-.01-.99,0-1.66,.35-2,1.05-.19,.39-.29,1-.29,1.82v4.88h-2.48v-10.21h2.35v1.78c.38-.68,.71-1.14,1-1.4,.46-.42,1.06-.63,1.8-.63,.05,0,.09,0,.12,0"/><path class="cls-2" d="M306.04,46.9c.66,.32,1.2,.82,1.63,1.51,.39,.6,.64,1.31,.75,2.11,.07,.47,.09,1.14,.08,2.03h-6.86c.04,1.02,.37,1.74,.98,2.15,.38,.26,.83,.38,1.36,.38,.56,0,1.02-.15,1.37-.47,.19-.17,.36-.4,.51-.7h2.52c-.07,.61-.37,1.22-.91,1.84-.84,.99-2.03,1.49-3.55,1.49-1.25,0-2.36-.42-3.32-1.25-.96-.84-1.44-2.2-1.44-4.09,0-1.77,.44-3.12,1.3-4.07,.87-.94,1.99-1.42,3.37-1.42,.82,0,1.56,.16,2.22,.48m-3.69,2.3c-.35,.39-.57,.92-.66,1.58h4.25c-.04-.71-.26-1.25-.66-1.61-.39-.37-.88-.55-1.46-.55-.63,0-1.12,.19-1.47,.58"/><path class="cls-2" d="M120.37,25.5c-.35-1.23-.85-2.36-1.48-3.33-.88-1.34-2.73-2.42-4.11-2.42-.11,0-.21,0-.3,.02-1.1,.14-1.42,.4-1.97,.93-.45,.42-.93,1.4-.97,2.47-.03,.7,.11,1.36,.42,1.98,.03,.04,.19,.29,.19,.29l.09,.13h-24.21v2.34h3.44v3.16c0,.32-.16,.51-.44,.53-.49,.04-.88-.22-1.2-.73-.11-.22-.19-.38-.27-.54-.1-.19-.19-.38-.31-.64l-1.97,1.36c.03,.13,.21,.46,.62,1.21,.49,.9,1,1.78,1.53,2.6,1.6,2.31,2.7,3.84,3.35,4.67l1.89-1.78c-.8-.76-1.75-1.99-2.91-3.76l-.07-.11,.12-.02c.53-.09,.99-.27,1.35-.55,.59-.46,.88-1.1,.88-1.95v-3.44h3.43v11.24h2.59v-11.24h2.53v4.21c0,1.02,.36,1.9,1.08,2.61,.72,.72,1.57,1.09,2.53,1.09,.43,0,.87-.09,1.3-.28l.07-.03,.03,.08c.26,.68,.65,1.3,1.21,1.87,.34,.35,.72,.64,1.19,.91l.12,.07-2.97,2,1.67,1.38,2.8-1.88,1.95,1.38,1.27-.9-1.41-1.44,.15-.03c.55-.12,1-.29,1.38-.52,.67-.39,1.31-1.07,1.96-2.06l-2.03-1.54c-.6,1.24-1.39,1.89-2.33,1.93-.66,.03-1.28-.25-1.84-.83-.57-.59-.86-1.26-.86-2,0-.96,.35-1.45,1.05-1.45h3.17c.65,0,1.18-.55,1.18-1.23v-3.33h2.68v11.24h2.6v-11.24h4.05l.02,.03c.37,.47,.54,1.89,.54,2.35,0,.88-.48,1.33-1.44,1.33-.35,0-.7-.06-1.04-.19-.03,1.61,.41,2.96,1.3,4.03,.88,1.05,1.99,1.57,3.3,1.57,.93,0,1.66-.13,2.16-.39l.11-.06v2.56h2.58v-11.24h1.79v-2.35h-13.55l-.02-.06Zm-13.17,7.78c-.2,.16-.44,.24-.74,.24-.03,0-.06,0-.1,0h-.04c-.88-.1-1.42-.54-1.42-1.15v-2.33l2.36,3.19-.06,.05Zm5.58-3.08h-2.28c-.9,0-1.71,.36-2.32,1l.04-.04c-.06,.08-.15-.06-.16-.06l-2.43-3.19h7.15v2.29Zm2.39-4.65c-.17-.08-.62-.48-.83-.87-.22-.47-.33-.92-.31-1.36,.02-.37,.18-.67,.47-.9,.29-.22,.62-.33,1-.31,1.05,.05,1.86,1.17,2.41,3.35l.03,.11h-2.77Zm10.49,8.05c.68-.23,1.17-.59,1.51-1.1l.03-.05s.06-.09,.09-.15c.07-.14,.13-.29,.19-.43,.02-.07,.05-.15,.07-.23,.09-.33,.14-.69,.14-1.08,0-.57-.11-1.98-.3-2.54v-.03s0-.08,0-.08h.08s2.09,0,2.09,0v5.59c-.14,.32-.47,.61-1.02,.89-.26,.13-.46,.22-.65,.27-.21,.06-.4,.09-.58,.09-.06,0-.12,0-.18-.01-.2-.03-.35-.07-.49-.12-.29-.1-.55-.27-.77-.5-.05-.06-.1-.11-.15-.18-.04-.04-.06-.09-.09-.13-.01-.02-.03-.04-.04-.07l-.09-.13h.15Z"/><path class="cls-2" d="M142.49,25.65h-5.18v2.23h3.02v3.21c0,.12,0,.22-.03,.31-.04,.14-.15,.3-.43,.3-.24-.02-.45-.2-.63-.52-.08-.13-.21-.43-.4-.88l-1.76,1.33c.28,.62,1.08,1.96,2.39,3.98,.98,1.52,1.66,2.45,2.03,2.96,.11,.16,.2,.27,.25,.35l1.91-1.58c-.38-.53-.75-.93-1.1-1.31-.23-.25-.44-.48-.65-.74-.37-.53-.69-.96-.93-1.28l-.13-.18,.2-.06c.56-.16,1-.48,1.31-.95,.3-.44,.45-.9,.45-1.43v-3.49h2.48v3.67l-1.81-.02,1.08,2.11h.73v4.37l-.1,.03c-.4,.12-.75,.31-1.05,.56-.62,.5-.94,1.2-.94,2.08,0,.8,.28,1.48,.85,2.02,.58,.56,1.25,.84,2.04,.86h.08c.57,0,1.18-.17,1.89-.52l-.93-1.61c-.36,.23-.67,.35-.9,.35-.42,0-.86-.26-.86-.69,0-.49,.48-1.04,1.13-1.04,.9,.03,1.54,.69,2.35,1.62,0,0,.02,.02,.9,1.29l1.96-1.23c-.35-.47-1.55-2.02-2.14-2.55-.51-.47-1.08-.82-1.69-1.04l-.09-.03v-10.22h9.69v5.1c0,.15-.1,.41-.84,1.23-.67,.72-1.28,1.07-1.87,1.07s-.87-.31-.87-.89c0-.47,.18-.95,.52-1.43,.47-.65,.6-.65,.67-.65,0,0,.86,.02,1.12,.02v-2.15h-6.23v2.17h2.22l-.15,.23c-.38,.58-.58,1.22-.58,1.89,0,.88,.29,1.6,.86,2.14,.58,.54,1.34,.82,2.26,.82,.79,0,1.69-.34,2.67-1.02l.21-.14v2.77h2.49v-11.17h7.99v2.82h-5.32c-.72,0-1.06,.36-1.06,1.13,0,.22,.2,.74,1.16,1.99,1,1.3,1.46,1.51,1.64,1.52h.05c.32,0,.53-.15,.66-.48,.09-.2,.14-.4,.14-.59v-1.25h2.72v6.06h2.49v-11.2h2.34v11.2h2.49v-11.2s1.8,0,1.8,0v-2.22h-34.55Z"/><path class="cls-2" d="M192.51,25.61c-.63-.95-1.22-1.74-1.81-2.4-1.75-1.93-3.42-2.91-4.95-2.91-1.29,0-2.33,.36-3.07,1.08-.74,.7-1.12,1.67-1.14,2.86,0,.36,.06,.78,.17,1.25,.01,.04,.07,.18,.03,.18h-1.73v2.22h1.7c.07,0,.13,.07,.13,.15v7.55s0,.03,0,.05v3.44h2.47v-11.04c0-.08,.06-.15,.13-.15h7.16c.07,0,.13,.07,.13,.15v6.05c0,.16-.13,.36-.43,.63-.35,.31-1.07,.45-1.48,.45h-.07c-.38-.01-.73-.17-1.04-.46-.3-.29-.46-.68-.46-1.17s.14-.86,.41-1.17c.27-.3,.62-.46,1.03-.46,.36,0,.67,.09,1.04,.23l-.22-2.1c-.61-.14-.94-.2-1.15-.2-.97,0-1.79,.35-2.45,1.05-.66,.7-.99,1.58-.99,2.63,0,1.18,.39,2.13,1.17,2.84,.69,.65,1.53,.98,2.51,.98,.05,0,.1,0,.15,0,.47,0,1.34-.12,1.79-.34,.05-.02,.19-.14,.19-.09v2.16h2.47v-11.04c0-.08,.06-.15,.13-.15h10.49c.07,0,.13,.07,.13,.15v1.47c0,.08-.06,.15-.13,.15h-7.01c-.41,0-.78,.16-1.09,.49-.31,.33-.47,.71-.47,1.13,0,.61,.3,1.68,1.14,2.7,.71,.86,1.33,1.29,1.84,1.29,.02,0,.05,0,.07,0,.14-.02,.39-.1,.76-.27,.41-.19,.66-.28,.82-.28,.12,0,.41,.05,.41,.53,0,.56-.25,1.02-.76,1.39-.4,.31-.65,.45-.79,.45-.08,0-.13-.04-.16-.08-.9-.96-1.63-1.45-2.17-1.45-.39,0-.7,.13-.96,.41-.25,.26-.38,.6-.38,.99,0,.62,.23,1.12,.68,1.46,.4,.32,.9,.5,1.54,.54,.16,.01,.32,0,.46-.03h.03s.07,.01,.1,.04c.23,.27,1.69,1.83,1.97,2.03l1.73-1.87c-.53-.12-1.35-.47-1.64-.66-.03,0,.67-.25,.67-.25,.41-.13,.8-.41,1.15-.83,.57-.65,.85-1.43,.84-2.39-.02-1.41-.6-2.07-1.84-2.07-.22,0-.53,.06-.96,.19-.45,.13-.78,.2-1.01,.2-.33,0-.63-.18-.86-.53-.11-.15-.14-.57-.14-.63,0-.1,.04-.34,.41-.34h5.65c.07,0,.13,.07,.13,.15v7.1h2.48v-.12s0-10.92,0-10.92c0-.08,.06-.15,.13-.15h2.13c.07,0,.13,.07,.13,.15v8.46s0,.03,0,.05v2.52h2.48v-11.04c0-.08,.06-.15,.13-.15h7.49c.07,0,.13,.07,.13,.15v2.53c0,.08-.06,.15-.13,.15h-5.17c-.72,0-1.06,.36-1.06,1.13,0,.18,.15,.69,1.16,1.99,.94,1.24,1.41,1.51,1.63,1.52h.04c.33,0,.54-.15,.68-.48,.09-.2,.14-.4,.14-.59v-1.1c0-.08,.06-.15,.13-.15h2.44c.07,0,.13,.07,.13,.15v3.33s0,.03,0,.05v2.52h2.47v-11.04c0-.08,.06-.15,.13-.15h1.6v-2.22h-31.72s-.08-.02-.11-.06m-2.71,0s-.07,.07-.11,.07h-3.61s-.03,0-.04,0h-2s-.03-.05-.05-.11c-.11-.45-.15-.8-.15-1.11,.02-1.31,.65-1.97,1.86-1.97,1.07,0,2.11,.53,3.1,1.59,.49,.55,.82,1.01,1.01,1.4,.02,.05,.02,.1,0,.14"/><path class="cls-2" d="M227.77,25.72v2.23h3.98v6s-.05,.06-.05,.06c-.38,.52-.88,.77-1.53,.77-.41-.02-.73-.2-.98-.55-.24-.31-.35-.7-.34-1.17,.04-.8,.29-1.29,.78-1.5,.13-.05,.39-.08,.86-.1l-.34-2c-1.22,.03-2.13,.37-2.71,1-.55,.6-.83,1.49-.83,2.65,0,1.14,.33,2.07,.99,2.75,.66,.7,1.46,1.04,2.45,1.04,.47,0,.92-.1,1.35-.28l.35-.15v2.59h2.34v-4.95s-.03-.12-.03-.12v-1.13c0-.17,.07-.31,.52-.76,.34-.33,.7-.5,1.06-.5s.65,.17,.86,.5c.19,.31,.28,.64,.28,1.03,0,1.17-.5,2.16-1.49,2.96l1.5,1.59c.09-.08,.24-.22,.49-.47,.49-.52,.9-1.08,1.19-1.66,.42-.8,.62-1.65,.61-2.52-.02-.95-.34-1.77-.96-2.44-.61-.68-1.35-1.02-2.26-1.03-.52,0-1,.14-1.41,.42l-.39,.26v-2.31h12.67v1.63h-3.16c-.74,0-1.42,.32-2,.93-.57,.57-.86,1.28-.86,2.11,0,1.64,.65,2.88,1.95,3.69l.41,.25-1.87,1.05,1.36,2.01,3.23-2.39h.23c.14,.02,.28,.03,.43,.03h.15l.51,.94c.15,.33,.25,.61,.28,.88h2.32c0-.14-.28-.9-.51-1.27-.21-.35-.43-.67-.65-1.05l-.12-.2,.17-.16c.45-.41,.67-.96,.67-1.63,0-.45-.16-.84-.46-1.16-.31-.33-.65-.5-1.05-.5-.54,0-.97,.23-1.28,.69-.19,.28-.31,.62-.37,1.03,0,.04-.02,.09-.03,.14-.01,.04-.02,.06-.02,.09l-.02,.21-.19,.03c-.13,.02-.28,.02-.44,0-.41-.05-.84-.23-1.27-.54-.75-.53-1.1-1.2-1.08-2.04,.03-.97,.61-1.12,.95-1.12h4.12c.28,0,.55-.13,.74-.34,.19-.21,.29-.48,.29-.76v-2.57h1.43v-2.23h-12.55l-.02-.03-4.48-5.75-1.67,1.4,4.02,4.22,.18,.17h-8.3Z"/><rect class="cls-2" x="239.09" y="21.52" width="2.32" height="2.27"/></g></svg>