<svg width="59" height="59" viewBox="0 0 59 59" fill="none" xmlns="http://www.w3.org/2000/svg">
<g clip-path="url(#clip0_249_57)">
<path d="M48.43 57.1C50.02 57.1 51.52 57.1 53.03 57.1C53.79 57.1 54.23 57.43 54.24 58.02C54.26 58.63 53.81 59 53.02 59C37.34 59 21.66 59 5.98 59C5.22 59 4.79 58.66 4.77 58.08C4.75 57.47 5.2 57.1 5.99 57.1C7.49 57.1 9 57.1 10.57 57.1C10.7 55.98 10.83 54.89 10.95 53.79C11.12 52.18 11.27 50.56 11.46 48.94C11.73 46.69 13.46 45.01 15.73 44.74C15.98 44.71 16.24 44.66 16.48 44.58C18.77 43.82 21.06 43.04 23.35 42.3C23.8 42.16 23.98 41.92 24.14 41.48C24.44 40.63 24.37 40.03 23.57 39.43C22.65 38.73 22.04 37.72 21.63 36.63C21.48 36.24 21.27 36.15 20.88 36.16C14.38 36.17 7.88 36.16 1.37 36.16C0.28 36.16 0 35.88 0 34.79C0 23.65 0 12.51 0 1.37C0 0.27 0.27 0 1.37 0C20.12 0 38.87 0 57.63 0C58.72 0 59 0.28 59 1.37C59 12.51 59 23.65 59 34.79C59 35.88 58.72 36.16 57.63 36.16C51.15 36.16 44.66 36.16 38.18 36.16C37.75 36.16 37.52 36.26 37.35 36.69C36.83 38.01 35.96 39.07 34.89 39.99C34.74 40.11 34.64 40.42 34.68 40.61C35 42.08 35.01 42.08 36.44 42.56C38.47 43.24 40.49 43.92 42.53 44.58C42.92 44.71 43.34 44.76 43.74 44.84C45.88 45.26 47.39 47.06 47.58 49.26C47.81 51.86 48.13 54.45 48.42 57.11L48.43 57.1ZM20.94 34.11C20.94 32.53 20.91 30.87 20.94 29.21C21.03 24.77 24.79 21.03 29.23 20.95C34.15 20.86 38.04 24.65 38.06 29.58C38.06 31.12 38.06 34.28 38.06 34.28H57.11V2H1.98V34.11H20.94ZM18.08 56.99C18.08 55.52 18.08 54.01 18.08 52.51C18.08 51.81 18.46 51.39 19.04 51.39C19.62 51.39 19.98 51.82 19.98 52.52C19.98 53.83 19.98 55.14 19.93 56.44V57.14H39V56.45C39 56.45 39 53.79 39.02 52.47C39.02 51.81 39.39 51.4 39.95 51.38C40.53 51.37 40.91 51.79 40.92 52.48C40.92 53.09 40.92 53.71 40.92 54.32V56.97H46.5C46.5 56.97 46.5 56.84 46.5 56.77C46.23 54.23 45.95 51.69 45.67 49.15C45.52 47.8 44.43 46.76 43.07 46.62C42.78 46.59 42.48 46.55 42.2 46.46C40.27 45.82 38.32 45.22 36.41 44.51C34.88 43.94 33.34 43.66 31.71 43.75C30.48 43.82 29.25 43.82 28.03 43.75C25.98 43.64 24.01 43.87 22.12 44.69C21.38 45.01 20.59 45.23 19.81 45.46C18.39 45.89 16.98 46.31 15.55 46.7C14.32 47.03 13.45 48.02 13.34 49.27C13.21 50.65 13.05 52.03 12.9 53.4C12.77 54.61 12.51 56.98 12.51 56.98H18.1L18.08 56.99ZM33.02 41.89C32.8 41.05 32.59 40.26 32.4 39.48C32.21 38.68 32.77 38.14 33.58 38.26C33.77 38.29 34.04 38.21 34.18 38.07C35.04 37.24 35.67 36.25 35.91 35.08C36.36 32.89 36.29 30.65 36.02 28.46C35.63 25.26 32.73 22.88 29.47 22.89C26.24 22.89 23.33 25.27 22.97 28.44C22.76 30.3 22.8 32.2 22.89 34.07C22.96 35.62 23.68 36.96 24.79 38.05C24.92 38.18 25.16 38.3 25.33 38.28C26.32 38.15 26.79 38.65 26.54 39.63C26.36 40.37 26.17 41.12 25.98 41.89H33.01H33.02Z" fill="#FBE5DA"/>
<path d="M14.21 23.7799H15.16C15.16 23.1599 15.16 22.5699 15.16 21.9799C15.16 19.8199 15.16 17.6599 15.16 15.4999C15.16 14.6099 15.49 14.2899 16.39 14.2899C17.18 14.2899 17.98 14.2899 18.77 14.2899C19.58 14.2899 19.92 14.6299 19.93 15.4499C19.93 18.1999 19.93 20.9599 19.93 23.7299C20.08 23.7899 20.23 23.8399 20.36 23.9099C20.75 24.1199 21 24.4899 20.84 24.8899C20.71 25.2099 20.35 25.4499 20.06 25.6699C19.96 25.7499 19.75 25.6999 19.59 25.6999C14.41 25.6999 9.22001 25.6999 4.04001 25.6999C3.84001 25.6999 3.58001 25.7499 3.46001 25.6399C3.19001 25.3899 2.85001 25.0899 2.79001 24.7699C2.69001 24.1899 3.14001 23.8999 3.71001 23.7499C3.71001 22.7699 3.71001 21.6199 3.71001 20.6299C3.71001 18.5299 3.71001 16.4299 3.71001 14.3299C3.71001 13.5099 4.05001 13.1799 4.87001 13.1699C5.66001 13.1699 6.46001 13.1699 7.25001 13.1699C8.15001 13.1699 8.47001 13.4899 8.47001 14.3799C8.47001 17.2299 8.47001 20.0899 8.47001 22.9399C8.47001 23.1499 8.47001 23.3699 8.47001 23.5999H9.42001V23.1199C9.49001 21.5099 9.49001 19.9099 9.49001 18.2999C9.49001 17.4499 9.82001 17.1199 10.68 17.1099C11.49 17.1099 12.31 17.1099 13.12 17.1099C13.9 17.1099 14.24 17.4599 14.25 18.2399C14.25 19.8499 14.25 21.4499 14.19 23.0599V23.7599L14.21 23.7799ZM6.74001 23.7799V15.3499H5.79001V23.7699H6.74001V23.7799ZM18.02 23.7799V16.1499H17.07V23.7799H18.02ZM11.35 19.0099V23.7799H12.3V19.0099H11.35Z" fill="#FBE5DA"/>
<path d="M46.63 20.9299C41.9 20.9299 38.07 17.0899 38.07 12.3399C38.07 7.61989 41.94 3.78989 46.69 3.80989C51.35 3.81989 55.2 7.67989 55.2 12.3399C55.2 17.0899 51.37 20.9299 46.64 20.9299H46.63ZM41.3 16.3599C42.75 14.9099 44.15 13.5199 45.53 12.0999C45.65 11.9699 45.67 11.6999 45.68 11.4999C45.69 10.0499 45.68 8.60989 45.68 7.15989V5.75989C43.13 6.25989 41.36 7.60989 40.44 9.94989C39.55 12.1899 39.9 14.3199 41.3 16.3599ZM42.69 17.6599C44.38 19.1799 47.37 19.4699 49.6 18.3199C51.63 17.2799 52.8 15.6199 53.22 13.3199C51.17 13.3199 49.23 13.3199 47.3 13.3199C47.14 13.3199 46.95 13.3999 46.84 13.5099C45.46 14.8699 44.09 16.2399 42.69 17.6499V17.6599ZM53.13 11.3799C53.06 8.77989 49.89 5.64989 47.59 5.86989V11.3799H53.13Z" fill="#FBE5DA"/>
<path d="M20.49 5.70994C17.24 5.70994 13.99 5.70994 10.74 5.70994C10.28 5.70994 9.86999 5.62994 9.62999 5.17994C9.32999 4.60994 9.66999 3.92994 10.32 3.81994C10.51 3.78994 10.72 3.79994 10.91 3.79994C17.27 3.79994 23.64 3.79994 30 3.79994C30.1 3.79994 30.2 3.79994 30.3 3.79994C30.96 3.81994 31.38 4.16994 31.4 4.71994C31.42 5.29994 30.99 5.69994 30.3 5.69994C27.03 5.69994 23.76 5.69994 20.49 5.69994V5.70994Z" fill="#FBE5DA"/>
<path d="M18.97 8.56009C16.27 8.56009 13.58 8.56009 10.88 8.56009C10.7 8.56009 10.52 8.58009 10.35 8.55009C9.84 8.45009 9.53 8.14009 9.53 7.61009C9.53 7.08009 9.84 6.77009 10.35 6.67009C10.54 6.64009 10.75 6.65009 10.94 6.65009C16.33 6.65009 21.72 6.65009 27.12 6.65009C27.32 6.65009 27.52 6.63009 27.71 6.66009C28.22 6.75009 28.53 7.07009 28.53 7.60009C28.53 8.13009 28.22 8.44009 27.71 8.54009C27.54 8.57009 27.35 8.55009 27.18 8.55009C24.44 8.55009 21.71 8.55009 18.97 8.55009V8.56009Z" fill="#FBE5DA"/>
<path d="M9.03001 26.6499C10.69 26.6499 12.36 26.6299 14.02 26.6599C14.35 26.6599 14.76 26.7799 14.98 26.9899C16.4 28.3499 17.78 29.7299 19.14 31.1499C19.36 31.3799 19.47 31.8399 19.41 32.1499C19.36 32.3999 18.98 32.7399 18.73 32.7599C18.41 32.7899 17.99 32.6099 17.75 32.3799C16.64 31.3299 15.56 30.2499 14.51 29.1499C14.09 28.7099 13.66 28.5099 13.02 28.5199C10.13 28.5599 7.23001 28.5399 4.34001 28.5399C4.20001 28.5399 4.06001 28.5399 3.92001 28.5399C3.27001 28.5199 2.85001 28.1499 2.85001 27.5899C2.85001 27.0299 3.26001 26.6399 3.91001 26.6399C5.61001 26.6399 7.32001 26.6399 9.02001 26.6399L9.03001 26.6499Z" fill="#FBE5DA"/>
<path d="M3.80999 7.6101C3.80999 6.7201 3.80999 5.8301 3.80999 4.9301C3.80999 4.1501 4.15999 3.8101 4.93999 3.8001C5.78999 3.8001 6.63999 3.7901 7.49999 3.8001C8.19999 3.8101 8.55999 4.1601 8.56999 4.8701C8.57999 6.6901 8.57999 8.5201 8.56999 10.3401C8.56999 11.0401 8.20999 11.4001 7.49999 11.4101C6.62999 11.4201 5.75999 11.4201 4.87999 11.4101C4.17999 11.4001 3.81999 11.0501 3.80999 10.3401C3.79999 9.4301 3.80999 8.5201 3.80999 7.6001V7.6101ZM5.78999 5.6601V9.4701H6.57999V5.6601H5.78999Z" fill="#FBE5DA"/>
<path d="M48.84 27.6001C47.43 27.6001 46.03 27.5801 44.62 27.6101C44.36 27.6101 44.05 27.7501 43.86 27.9301C42.98 28.7601 42.14 29.6301 41.29 30.4801C40.75 31.0101 40.2 31.0601 39.78 30.6401C39.36 30.2201 39.41 29.6701 39.94 29.1301C40.94 28.1201 41.94 27.0901 42.98 26.1201C43.23 25.8901 43.63 25.7101 43.97 25.7101C47.02 25.6801 50.07 25.6901 53.12 25.6901C53.82 25.6901 54.25 26.0601 54.25 26.6401C54.25 27.2101 53.82 27.5901 53.13 27.5901C51.7 27.5901 50.28 27.5901 48.85 27.5901L48.84 27.6001Z" fill="#FBE5DA"/>
<path d="M15.25 9.52002C16.76 9.52002 18.26 9.52002 19.77 9.52002C20.5 9.52002 20.95 9.91002 20.93 10.5C20.91 11.07 20.48 11.42 19.77 11.42C16.74 11.42 13.7 11.42 10.67 11.42C9.93999 11.42 9.49999 11.04 9.50999 10.44C9.52999 9.86002 9.94999 9.52002 10.66 9.52002C12.19 9.52002 13.71 9.52002 15.24 9.52002H15.25Z" fill="#FBE5DA"/>
<path d="M48.53 24.7401C47.02 24.7401 45.52 24.7401 44.01 24.7401C43.26 24.7401 42.83 24.3801 42.82 23.7901C42.82 23.2001 43.25 22.8401 44 22.8401C47.01 22.8401 50.03 22.8401 53.04 22.8401C53.79 22.8401 54.23 23.2001 54.23 23.7901C54.23 24.3801 53.79 24.7401 53.05 24.7401C51.54 24.7401 50.04 24.7401 48.53 24.7401Z" fill="#FBE5DA"/>
<path d="M5.75 29.5C6.32 29.5 6.9 29.5 7.47 29.5C8.13 29.51 8.54 29.87 8.55 30.43C8.56 30.99 8.15 31.39 7.5 31.4C6.29 31.41 5.08 31.41 3.87 31.4C3.26 31.4 2.86 31.01 2.85 30.47C2.84 29.91 3.25 29.52 3.9 29.51C4.51 29.5 5.13 29.51 5.74 29.51L5.75 29.5Z" fill="#FBE5DA"/>
</g>
<defs>
<clipPath id="clip0_249_57">
<rect width="59" height="59" fill="white"/>
</clipPath>
</defs>
</svg>
