<svg width="657" height="652" viewBox="0 0 657 652" fill="none" xmlns="http://www.w3.org/2000/svg">
<g clip-path="url(#clip0_619_121)">
<path d="M332.2 223.53C332.73 237.59 330.06 249.69 324.96 261.65C321.26 254.09 324.85 234.37 332.2 223.53Z" fill="#4C4C4C"/>
<path d="M323.39 145.38C324.06 144.7 324.72 144.02 325.38 143.34C331.94 137.84 338.23 131.95 345.15 126.93C351.94 122 359.37 117.95 366.53 113.52C368.19 112.81 369.86 112.1 371.52 111.4C367.53 111.73 367.72 108.28 366.88 106.02C350.18 60.5602 318.7 28.9502 273.83 12.4102C213.04 -9.98982 154.91 -1.56982 100.81 33.7202C88.26 41.9102 76.98 52.2102 69.2 65.1102C62.03 76.9902 56.71 90.0002 50.58 102.51C48.58 112.89 46.57 123.26 44.57 133.63C42.96 145.82 41.04 157.98 39.88 170.21C39.17 177.61 35.92 183.58 31.37 188.93C27.29 193.73 22.6 197.99 18.22 202.54C13.27 207.68 7.87999 212.5 3.57999 218.15C-2.20001 225.75 -0.830009 233.1 6.58999 239.11C8.90999 240.99 11.87 242.16 13.91 244.27C15.6 246.01 17.43 248.68 17.34 250.87C17.09 256.97 15.18 262.54 9.37999 266.09C4.93999 268.8 4.05999 272.44 7.32999 276.59C9.80999 279.74 13.36 282.09 16.59 284.61C18.69 286.25 21.06 287.54 22.5 288.47C17.51 293.23 13.09 297.43 8.66999 301.64C7.58999 306.95 8.40999 311.69 12.77 315.38C13.02 315.36 13.26 315.4 13.49 315.49C16.21 316.1 18.92 316.77 21.66 317.31C27.22 318.43 28.73 323.09 24.98 327.52C22.76 330.14 20.66 332.86 18.5 335.54C15.2 350.23 27.81 367.37 43.04 368.36C49.32 368.76 55.67 368.27 61.97 367.89C74.6 367.12 87.2 366.09 99.83 365.3C117.23 364.21 131.76 369.29 144.21 382.45C157.39 396.4 167.41 411.31 170.71 430.54C174.89 454.96 171.69 478.76 165.07 502.17C153.54 542.91 134.48 580.18 111.38 615.49C109.03 619.11 106.68 622.73 104.33 626.35C101.84 630.27 99.35 634.18 96.87 638.11C94.07 642.57 91.28 647.05 88.49 651.52H229.5C232.18 640.87 234.53 630.13 237.6 619.59C250.7 574.55 268.16 531.36 295.08 492.66C305.48 477.71 318.05 464.26 329.44 449.98C335.35 442.58 340.94 434.93 346.49 427.25C349.06 423.7 349.05 420.08 346.45 416.16C338.09 403.52 329.55 390.97 321.9 377.9C301.66 343.34 287.08 306.61 282.82 266.48C278.02 221.25 291.01 181.57 321.63 147.78C322.3 147.05 322.81 146.18 323.39 145.38ZM99.61 82.2502C99.61 82.1102 99.6 81.9902 99.58 81.8602C99.6 81.9902 99.62 82.1102 99.62 82.2502H99.61ZM111.45 119.49C111.45 119.49 111.45 119.47 111.47 119.46H111.49L111.45 119.49ZM119.37 93.6802C118.62 93.5502 117.87 93.4302 117.11 93.3202H117.12L119.37 93.6702V93.6802ZM128.57 62.4302L128.55 62.4102C128.55 62.4102 128.57 62.4002 128.58 62.4002C128.58 62.4102 128.57 62.4202 128.57 62.4302ZM198.26 145.57L198.27 145.56C198.27 145.87 198.31 146.18 198.34 146.5C198.3 146.19 198.27 145.88 198.26 145.57ZM230.61 27.5502C232.59 27.5902 234.57 27.6302 236.55 27.6702C234.57 27.6302 232.59 27.5902 230.61 27.5602C230.61 27.5602 230.6 27.5602 230.6 27.5502H230.61ZM243.52 108.65V108.66C242.21 109.95 240.89 111.24 239.58 112.53C240.89 111.24 242.21 109.95 243.52 108.65ZM268.93 114.73C269.09 114.54 269.25 114.34 269.41 114.14H269.42C269.26 114.34 269.1 114.53 268.93 114.73ZM294.74 122.31C295 121.78 295.26 121.26 295.53 120.74C295.27 121.26 295.01 121.78 294.75 122.31C295.48 123.29 296.25 124.25 297.01 125.22C296.25 124.25 295.47 123.29 294.74 122.31ZM288.35 118.44H288.34L288.35 118.42C288.35 118.42 288.36 118.42 288.36 118.43C289.38 117.7 290.41 116.96 291.43 116.21H291.44C290.41 116.96 289.39 117.7 288.36 118.43C288.36 118.44 288.35 118.44 288.35 118.44Z" fill="#ADC624"/>
<path d="M645.53 358.85C653.06 364.79 652.56 371.27 644.06 376.64C640.62 378.81 637.02 380.74 632.28 383.48C634.94 384.81 636.39 385.38 637.67 386.21C640.28 387.9 643.36 389.28 645.26 391.6C652.03 399.84 649.06 408.21 638.74 410.82C637.77 411.07 636.65 410.97 635.83 411.45C633.86 412.59 630.98 413.64 630.42 415.36C629.83 417.18 630.85 420.35 632.29 421.87C640.33 430.33 641.3 436.86 635.38 446.96C629.37 457.2 621.01 463.54 608.55 462.64C597.77 461.87 587.01 460.45 576.22 460.12C564.11 459.75 551.93 459.81 539.85 460.58C530.91 461.14 523.43 465.8 517.21 472.22C512.93 476.64 508.88 481.28 504.58 485.68C490.01 500.58 485.68 519.4 484.55 539.19C482.9 568.04 490.05 595.38 500.19 622.04C503.97 631.99 508.39 641.7 512.52 651.52H443.52C443.41 649.86 443.43 648.18 443.18 646.54C440.34 627.94 438.26 609.18 434.38 590.8C428.91 564.92 423.17 538.99 415.51 513.69C409.02 492.24 400.64 471.21 391.24 450.86C382.96 432.94 373.21 415.45 362.06 399.17C350.92 382.92 337.11 368.51 324.72 353.08C319.53 346.62 314.88 339.7 310.22 332.83C307.78 329.22 307.83 325.36 310.41 321.59C313.37 317.29 316.26 312.95 319.15 308.6L297.01 254.28L317.42 194.36L336.51 157.11L356.95 129.34L371.28 123.07C370.87 120.85 370.42 118.64 369.82 116.47C369.5 115.27 367.67 114.49 366.53 113.52C368.19 112.81 369.86 112.1 371.52 111.4C398.65 98.1202 427.48 93.1102 457.39 94.8702C485.1 96.4902 511.77 102.93 536.49 115.95C581.46 139.62 606.99 176.48 611.89 227.42C613.26 241.67 614.87 256.02 618.22 269.88C619.83 276.51 625.2 282.6 629.91 288.03C636.21 295.31 643.88 301.38 650.31 308.55C660.14 319.51 658.66 327.96 646.24 336.01C637.58 341.63 637.25 352.33 645.53 358.85Z" fill="#36A8EB"/>
<path d="M291.43 116.2C290.41 116.95 289.38 117.69 288.36 118.42C289.39 117.69 290.41 116.95 291.44 116.21H291.43V116.2ZM288.35 118.4V118.42C288.35 118.42 288.36 118.42 288.36 118.41C288.36 118.4 288.35 118.4 288.35 118.4ZM269.41 114.12C269.25 114.32 269.09 114.52 268.93 114.71C269.1 114.51 269.26 114.32 269.42 114.12H269.41ZM249.44 152.53V152.55H249.45V152.53H249.44ZM243.51 108.63C242.2 109.93 240.88 111.22 239.57 112.51C240.88 111.22 242.2 109.93 243.51 108.64C243.51 108.64 243.51 108.64 243.51 108.63ZM198.26 145.54H198.25C198.26 145.86 198.29 146.17 198.33 146.48C198.3 146.16 198.27 145.85 198.26 145.54ZM117.11 93.2998H117.1C117.86 93.4198 118.61 93.5398 119.36 93.6698L117.11 93.2998Z" fill="#F1F1F1"/>
<path d="M249.44 152.54V152.56H249.45V152.54H249.44Z" fill="#E8E8E8"/>
<path d="M128.55 62.4001L128.57 62.4201C128.57 62.4201 128.58 62.4001 128.58 62.3901C128.57 62.3901 128.56 62.4001 128.55 62.4001Z" fill="#E7E7E7"/>
<path d="M236.55 27.66C234.57 27.62 232.59 27.58 230.61 27.55C230.61 27.55 230.6 27.55 230.6 27.54H230.61C232.59 27.58 234.57 27.62 236.55 27.66Z" fill="#EDEDED"/>
<path d="M243.53 108.64V108.65C242.22 109.94 240.9 111.23 239.59 112.52C240.9 111.23 242.22 109.94 243.53 108.64Z" fill="#959595"/>
<path d="M119.37 93.6698C118.62 93.5498 117.87 93.4298 117.11 93.3198H117.12L119.37 93.6698Z" fill="#949494"/>
<path d="M269.42 114.13C269.26 114.33 269.1 114.52 268.93 114.72C269.09 114.53 269.25 114.33 269.41 114.13H269.42Z" fill="#E4E4E4"/>
<path d="M288.35 118.41V118.43H288.34L288.35 118.41Z" fill="#949494"/>
<path d="M111.49 119.46L111.45 119.49C111.45 119.49 111.45 119.47 111.47 119.46H111.49Z" fill="#9A9A9A"/>
<path d="M198.34 146.49C198.3 146.18 198.27 145.87 198.26 145.56L198.27 145.55C198.27 145.86 198.31 146.17 198.34 146.49Z" fill="#D6D6D6"/>
<path d="M288.36 118.42L288.35 118.43H288.34L288.35 118.41C288.35 118.41 288.36 118.41 288.36 118.42Z" fill="#D9D9D9"/>
<path d="M288.36 118.42L288.35 118.43H288.34L288.35 118.41C288.35 118.41 288.36 118.41 288.36 118.42Z" fill="#D9D9D9"/>
<path d="M291.44 116.21C290.41 116.95 289.39 117.69 288.36 118.42C289.38 117.69 290.41 116.95 291.43 116.2H291.44V116.21Z" fill="#D9D9D9"/>
<path d="M236.55 27.66C234.57 27.62 232.59 27.58 230.61 27.55C230.61 27.55 230.6 27.55 230.6 27.54H230.61C232.59 27.58 234.57 27.62 236.55 27.66Z" fill="#959595"/>
<path d="M128.58 62.3901C128.58 62.3901 128.57 62.4101 128.57 62.4201L128.55 62.4001C128.55 62.4001 128.57 62.3901 128.58 62.3901Z" fill="#989898"/>
<path d="M328.48 294.54C327.1 296.57 325.71 298.61 324.33 300.64C323.64 298.19 322.96 295.74 321.92 292.03C324.96 293.19 326.72 293.86 328.48 294.54Z" fill="#626262"/>
<path d="M99.62 82.2499H99.61C99.61 82.1099 99.6 81.9899 99.58 81.8599C99.6 81.9899 99.62 82.1099 99.62 82.2499Z" fill="#929292"/>
<path d="M111.49 119.46L111.45 119.49C111.45 119.49 111.45 119.47 111.47 119.46H111.49Z" fill="#929292"/>
<path d="M128.58 62.3901C128.58 62.3901 128.57 62.4101 128.57 62.4201L128.55 62.4001C128.55 62.4001 128.57 62.3901 128.58 62.3901Z" fill="#929292"/>
<path d="M119.37 93.6698C118.62 93.5498 117.87 93.4298 117.11 93.3198H117.12L119.37 93.6698Z" fill="#929292"/>
<path d="M198.34 146.49C198.3 146.18 198.27 145.87 198.26 145.56L198.27 145.55C198.27 145.86 198.31 146.17 198.34 146.49Z" fill="#929292"/>
<path d="M236.55 27.66C234.57 27.62 232.59 27.58 230.61 27.55C230.61 27.55 230.6 27.55 230.6 27.54H230.61C232.59 27.58 234.57 27.62 236.55 27.66Z" fill="#929292"/>
<path d="M243.53 108.64V108.65C242.22 109.94 240.9 111.23 239.59 112.52C240.9 111.23 242.22 109.94 243.53 108.64Z" fill="#929292"/>
<path d="M269.42 114.13C269.26 114.33 269.1 114.52 268.93 114.72C269.09 114.53 269.25 114.33 269.41 114.13H269.42Z" fill="#929292"/>
<path d="M291.44 116.21C290.41 116.95 289.39 117.69 288.36 118.42C289.38 117.69 290.41 116.95 291.43 116.2H291.44V116.21Z" fill="#929292"/>
<path d="M288.36 118.42L288.35 118.43H288.34L288.35 118.41C288.35 118.41 288.36 118.41 288.36 118.42Z" fill="#929292"/>
<path d="M297.01 125.21C296.25 124.24 295.47 123.28 294.74 122.3C295 121.77 295.26 121.25 295.53 120.73C295.27 121.25 295.01 121.77 294.75 122.3C295.48 123.28 296.25 124.24 297.01 125.21Z" fill="#929292"/>
<path d="M281.98 254.79C281.91 253.31 281.88 251.84 281.87 250.38C281.89 251.84 281.93 253.31 281.98 254.79Z" fill="#1063AF"/>
<path d="M295.7 322.38C294.73 319.66 293.81 316.92 292.94 314.17C293.81 316.87 294.72 319.61 295.7 322.38Z" fill="#1063AF"/>
<path d="M443.52 651.52H229.5C232.18 640.87 234.53 630.13 237.6 619.59C250.7 574.55 268.16 531.36 295.08 492.66C305.48 477.71 318.05 464.26 329.44 449.98C335.35 442.58 340.94 434.93 346.49 427.25C349.06 423.7 349.05 420.08 346.45 416.16C338.09 403.52 329.55 390.97 321.9 377.9C312.46 361.78 304.25 345.19 297.75 327.99H297.74C297.39 327.05 297.04 326.11 296.7 325.17C296.36 324.24 296.03 323.3 295.7 322.38C294.72 319.61 293.81 316.87 292.94 314.17C292.65 313.25 292.36 312.33 292.08 311.41C291.81 310.51 291.54 309.61 291.27 308.72C291.01 307.82 290.75 306.93 290.5 306.05C290.47 305.96 290.45 305.88 290.43 305.8C289.98 304.21 289.55 302.61 289.13 301.01C286.21 289.77 284.07 278.27 282.82 266.48C282.66 264.95 282.52 263.43 282.39 261.92C282.33 261.16 282.27 260.4 282.23 259.65C282.2 259.25 282.18 258.86 282.16 258.46C282.08 257.23 282.03 256.01 281.98 254.79C281.93 253.31 281.89 251.84 281.87 250.38C281.86 249.28 281.85 248.18 281.87 247.09C281.86 246.68 281.87 246.27 281.88 245.85C281.88 245.44 281.89 245.02 281.9 244.6C283.93 146.74 368.65 110.58 368.65 110.58C396.22 208.37 313.56 319.02 308.66 325.46C308.09 327.96 308.61 330.45 310.22 332.83C314.88 339.7 319.53 346.62 324.72 353.08C337.11 368.51 350.92 382.92 362.06 399.17C373.21 415.45 382.96 432.94 391.24 450.86C400.64 471.21 409.02 492.24 415.51 513.69C423.17 538.99 428.91 564.92 434.38 590.8C438.26 609.18 440.34 627.94 443.18 646.54C443.43 648.18 443.41 649.86 443.52 651.52Z" fill="#1063AF"/>
<path d="M289.13 301.01C285.46 287.1 283.31 274.08 282.39 261.92C282.52 263.43 282.66 264.95 282.82 266.48C284.07 278.27 286.21 289.77 289.13 301.01Z" fill="#1063AF"/>
<path d="M179.66 177.1C148.86 188.95 127.23 178.78 123.39 150.97C119.16 150.97 114.79 151.51 110.6 150.84C104.45 149.86 99.83 146.37 97.04 140.5C96.25 138.83 94.51 137.24 92.81 136.41C83.77 131.98 79.26 124.49 79.14 114.83C79.02 104.96 83.58 97.2802 92.45 92.3102C94.13 91.3702 96.31 89.2902 96.32 87.7102C96.52 67.8302 116.65 54.3302 137.01 57.1202C141.62 57.7502 144.72 57.0302 148.14 53.8402C160.87 41.9802 187.49 39.6002 200.88 51.0502C201.85 51.8802 204.14 52.2002 205.27 51.6502C222.39 43.3502 246.9 50.3002 254.87 65.7502C255.49 66.9402 257.87 67.7702 259.47 67.8302C275.66 68.3702 285.88 78.7302 286.12 94.6302C286.15 96.9302 287.51 99.6002 289.05 101.43C296.67 110.43 301.13 120.47 297 132.06C294.99 137.69 290.53 142.44 286.68 148.37C293.25 162.24 291.2 170.24 277.34 180.66C277.74 184.47 278.79 188.26 278.4 191.91C277.44 201.08 270.22 208 259.66 209.16C252.17 209.99 244.51 209.32 236.17 209.32C236.34 211.04 235.98 213.46 236.86 215.27C238.88 219.41 237.28 221.53 233.48 222.46C230.19 223.27 226.72 224.18 223.42 223.9C218.69 223.5 214.86 222.03 215.03 215.45C215.13 211.62 212.71 207.47 210.62 203.93C209.59 202.19 206.81 200.74 204.69 200.54C196.73 199.77 192.12 195.56 188.76 188.48C186.76 184.25 182.82 180.94 179.64 177.09L179.66 177.1ZM253.88 79.3402C260.37 80.4102 263.7 85.3102 267.16 90.1402C268.05 91.3802 269.32 92.8402 270.65 93.1502C273.89 93.8902 277.28 94.0202 280.61 94.3902C281.37 81.7102 271.18 71.8902 260.51 73.1202C257.56 75.9202 255.73 77.6502 253.9 79.3902C254.02 79.0302 254.3 78.6302 254.23 78.3102C250.16 58.8702 227.57 47.3602 209.47 55.5602C208.34 56.0702 207.06 57.3602 206.8 58.5002C205.7 63.3302 203.66 62.0902 201.6 59.4002C195.47 51.3502 186.96 48.5502 177.4 48.7502C163.43 49.0402 151.71 53.9302 144.08 66.4702C143.36 67.6602 141.55 68.1802 140.24 69.0202C139.93 67.5502 139.59 66.0802 139.34 64.6002C139.23 63.9502 139.32 63.2602 139.32 62.6402C117.35 59.4902 98.92 73.1002 102.32 88.8002C107.63 90.6302 112.56 92.3302 117.72 94.1102C118.36 92.3402 119.06 90.4002 119.36 89.5502C117.91 86.1802 116.85 83.7102 115.79 81.2402C118.25 81.6002 120.71 81.9602 123.69 82.3902C134.95 70.5102 148.91 66.9602 165.09 73.5302C165.42 70.9502 165.38 68.7802 166.05 66.8502C166.51 65.5302 167.94 64.5402 168.94 63.4002C169.59 64.7002 170.63 65.9402 170.81 67.3002C171.23 70.4802 171.23 73.7102 171.48 78.2002C180.39 70.0602 189.46 66.3402 199.7 65.9602C210.05 65.5802 218.95 69.4202 227.06 77.9002C227.06 74.5202 226.79 72.6002 227.16 70.8202C227.37 69.8002 228.63 68.9902 229.42 68.0902C230.28 68.9502 231.7 69.7002 231.87 70.6802C232.24 72.8602 231.99 75.1402 231.99 75.7702C239.75 77.0402 246.82 78.2002 253.88 79.3402ZM217.45 127.18C223.17 125.1 229.52 121.95 236.22 120.54C246 118.48 248.6 116.32 249.76 106.21C249.91 104.92 251.31 103.77 252.14 102.56C252.97 103.84 254.69 105.3 254.48 106.38C253.49 111.49 251.98 116.49 250.58 121.8C258.48 124.14 265.13 129.34 269.07 140.09C272.69 134.78 275.23 130.93 277.92 127.19C278.7 126.12 279.94 125.38 280.97 124.49C281.56 125.9 283 127.65 282.59 128.66C281.05 132.45 278.91 136 276.94 139.73C279.93 142.86 283.11 142.79 286.59 139.73C292.81 134.25 295.19 124.52 292.01 116.05C288.37 106.36 279.51 97.0702 271.48 98.5902C270.61 105.08 269.96 111.49 268.76 117.79C268.46 119.36 266.42 120.6 265.19 122C264.75 120.23 263.85 118.43 263.97 116.69C264.17 113.86 265.23 111.11 265.58 108.28C267.84 90.0802 251.22 76.7302 234.13 82.8702C231.36 83.8602 230.43 85.0402 230.7 88.2502C231.05 92.5302 230.59 96.9902 229.66 101.2C229.27 102.98 226.81 104.3 225.3 105.83C225.17 103.86 224.46 101.71 225 99.9402C227.75 90.9602 225.63 82.7902 218.7 77.1702C209.27 69.5302 194.74 69.1102 182.57 76.1402C172.78 81.8002 170.65 87.8302 172.87 102.61C173.07 103.92 171.84 105.44 171.27 106.86C170.22 105.94 168.35 105.08 168.26 104.08C167.75 98.1202 167.03 92.0602 167.69 86.1802C168.03 83.1302 167.66 81.6502 165.35 80.1302C156.62 74.3402 147.43 73.9102 138.08 78.1402C128.67 82.4002 122.37 89.6202 122.33 100.17C122.31 106.24 124.82 112.3 125.98 118.41C126.31 120.16 125.9 122.06 125.82 123.89C124.32 122.77 122.07 121.96 121.47 120.49C119.63 115.93 117.6 111.18 117.18 106.36C116.71 101.11 114.13 98.4502 109.88 96.5302C100.82 92.4302 89.96 97.0502 85.79 106.75C81.52 116.67 85.87 127.72 95.6 131.44C96.19 129.43 96.6 127.36 97.4 125.44C99.65 120.02 103.44 116.12 109.3 114.82C110.43 114.57 111.86 115.63 113.15 116.08C112.44 117.23 111.9 118.57 110.95 119.47C110.17 120.2 108.82 120.26 107.85 120.83C102.47 124.01 100.58 129.07 100.93 134.96C101.24 140.24 105.49 144.82 111.21 145.89C116.31 146.84 122.5 147.79 125.43 142.75C129.71 135.38 135.27 130.33 143.58 127.97C137.9 119.45 140.74 108.56 134.19 100.81C134.08 100.68 134.01 100.4 134.07 100.26C134.69 99.0602 135.35 97.8802 135.99 96.7002C136.95 97.3902 138.19 97.8902 138.8 98.8102C139.76 100.26 140.3 102 140.65 102.77C143.22 101.63 145.19 100.75 147.16 99.8802C146.96 101.93 147.33 104.26 146.48 106C140.69 117.94 146.98 128.72 160.37 129.85C168.08 117.85 180.48 116.13 193.67 115.88C192.82 110.29 193.89 104.71 189.38 100.28C187.89 98.8202 187.38 96.2102 186.83 94.0302C186.63 93.2402 187.58 91.3702 188.09 91.3502C189.16 91.2902 190.73 91.8002 191.29 92.6302C192.48 94.3802 193.16 96.4702 194.4 99.1902C195.58 97.1202 195.99 95.7402 196.91 94.9302C198.14 93.8502 199.75 93.2002 201.2 92.3702C201.25 94.0202 201.65 95.7602 201.26 97.3002C200.56 100.05 198.87 102.61 198.52 105.37C197.98 109.66 197.43 114.29 201.98 117.23C207.27 120.65 212.58 124.06 217.43 127.18H217.45ZM182.81 148.86C183.4 147.18 183.51 146.36 183.94 145.77C185.13 144.11 186.44 142.54 187.71 140.94C188.12 142.91 188.58 144.88 188.9 146.86C188.98 147.38 188.6 147.95 188.49 148.52C185.68 162.45 192.56 173.71 206.34 177.31C210.01 178.27 213.85 178.88 217.64 179.01C234.7 179.59 244.52 167.71 239.69 152.78C239.18 151.2 239.93 149.21 240.1 147.4C241.53 148.59 242.98 149.75 244.37 150.99C244.88 151.44 245.24 152.06 245.08 151.86C246.98 150.28 248.64 148.89 250.31 147.51C250.45 149.92 250.78 152.34 250.66 154.73C250.61 155.76 249.54 156.7 249.08 157.74C247.15 162.19 245.12 166.62 243.54 171.19C243.23 172.09 244.44 173.97 245.44 174.8C255.73 183.39 275.66 179.96 282.57 168.46C285.79 163.1 285.93 157.53 282.79 152.13C279.88 147.13 275.86 143.64 270.02 143.77C268.43 148.45 267.27 152.85 265.35 156.91C264.69 158.31 262.16 158.83 260.49 159.75C260.65 158.01 260.25 155.95 261.05 154.59C266.01 146.05 264.32 136.16 256.67 130.49C247.48 123.68 233.11 123.67 223.8 130.27C220.42 132.66 218.54 135.26 218.95 139.75C219.25 143.07 218.69 146.68 217.6 149.85C216.98 151.64 214.52 152.8 212.89 154.25C212.84 152.42 212.31 150.43 212.83 148.77C216.05 138.43 213.24 128.14 205.08 124.12C193.95 118.63 182.58 120.08 172.03 125.64C162.43 130.69 161.88 140.13 162.63 149.67C162.69 150.43 162.73 151.2 162.78 151.96C163.05 156.04 161.63 159.8 157.55 160.28C154.63 160.62 151.11 159.02 148.48 157.33C147.23 156.53 147.43 153.47 146.98 151.44C148.6 152.18 150.2 152.94 151.83 153.64C153.29 154.27 154.79 154.82 156.27 155.4C156.73 154.04 157.5 152.7 157.58 151.32C157.82 146.96 158 142.58 157.75 138.23C157.67 136.77 156.57 134.6 155.36 134.08C146.68 130.38 135.72 134.65 131.32 143.15C125.61 154.17 130.85 168.94 142.94 173.8C155.75 178.96 168.42 177.45 180.38 170.56C183.88 168.55 185 166.05 184.01 161.56C183.01 157.06 181.99 153.36 177.9 150.8C176.55 149.95 175.52 148.25 174.89 146.71C174.5 145.75 175.12 144.37 175.28 143.18C176.46 143.39 177.94 143.24 178.74 143.9C180.16 145.08 181.15 146.76 182.84 148.87L182.81 148.86ZM239.8 177.03C221.75 188.37 204.13 186.47 187.45 171.58C184.1 174.69 183.88 175.63 187 178C188.72 179.31 191.27 179.49 193.08 180.72C194.23 181.5 195.61 184.19 195.35 184.44C192.31 187.39 194.71 190.22 196.49 191.16C200.33 193.19 204.75 194.1 208.96 195.42C210.64 195.95 213.5 195.88 213.9 196.85C216.34 202.92 218.12 209.24 220.37 215.39C220.84 216.68 222.27 218.36 223.42 218.5C226.08 218.84 228.85 218.34 231.86 218.17C231.46 215.68 230.75 214.09 231.06 212.73C232.3 207.34 228.99 205.12 225.09 202.79C222.68 201.35 220.53 199.27 218.76 197.07C217.81 195.89 217.93 193.86 217.56 192.21C219.14 192.64 220.79 192.91 222.28 193.56C223.08 193.91 223.58 194.93 224.26 195.59C233.82 204.96 252.95 208.1 265 202.29C272.93 198.47 275.5 190.93 271.34 183.3C259.99 185.44 249.01 185.19 239.82 177.02L239.8 177.03Z" fill="white"/>
<path d="M456.2 269.13C488.41 281.52 511.03 270.89 515.05 241.8C519.47 241.8 524.05 242.36 528.42 241.67C534.85 240.65 539.69 237 542.6 230.85C543.43 229.1 545.25 227.44 547.02 226.57C556.47 221.94 561.19 214.1 561.31 204C561.44 193.68 556.67 185.65 547.39 180.45C545.63 179.47 543.36 177.29 543.34 175.64C543.13 154.85 522.08 140.73 500.79 143.65C495.97 144.31 492.73 143.55 489.15 140.22C475.84 127.82 448 125.33 434 137.3C432.99 138.17 430.59 138.5 429.4 137.92C411.5 129.24 385.86 136.51 377.52 152.66C376.88 153.91 374.38 154.78 372.71 154.83C355.77 155.4 345.09 166.23 344.84 182.86C344.8 185.27 343.39 188.06 341.78 189.97C333.81 199.38 329.15 209.88 333.47 222C335.57 227.89 340.23 232.86 344.26 239.06C337.39 253.56 339.54 261.94 354.03 272.83C353.61 276.81 352.52 280.78 352.92 284.6C353.93 294.19 361.47 301.42 372.52 302.65C380.36 303.52 388.37 302.82 397.09 302.82C396.92 304.62 397.29 307.15 396.36 309.05C394.24 313.38 395.92 315.59 399.89 316.57C403.33 317.42 406.96 318.37 410.41 318.08C415.35 317.66 419.36 316.13 419.19 309.25C419.09 305.24 421.61 300.9 423.8 297.21C424.88 295.39 427.78 293.87 430 293.66C438.32 292.86 443.15 288.45 446.66 281.05C448.75 276.63 452.88 273.17 456.2 269.14V269.13ZM378.58 166.89C371.79 168.01 368.31 173.14 364.69 178.19C363.76 179.48 362.44 181.02 361.04 181.34C357.65 182.12 354.1 182.25 350.62 182.64C349.82 169.38 360.48 159.11 371.64 160.4C374.73 163.33 376.64 165.14 378.55 166.95C378.43 166.57 378.13 166.16 378.2 165.82C382.45 145.49 406.08 133.45 425.01 142.03C426.19 142.57 427.53 143.91 427.81 145.11C428.96 150.16 431.1 148.87 433.24 146.05C439.65 137.63 448.55 134.71 458.55 134.91C473.16 135.21 485.42 140.33 493.39 153.44C494.15 154.68 496.04 155.23 497.4 156.1C497.72 154.56 498.08 153.03 498.34 151.48C498.45 150.8 498.36 150.08 498.36 149.43C521.34 146.14 540.61 160.37 537.06 176.79C531.51 178.71 526.35 180.49 520.95 182.35C520.28 180.5 519.55 178.47 519.23 177.58C520.74 174.06 521.85 171.47 522.96 168.89C520.39 169.26 517.81 169.64 514.7 170.09C502.92 157.67 488.32 153.95 471.4 160.82C471.06 158.12 471.1 155.85 470.4 153.84C469.92 152.45 468.42 151.42 467.38 150.23C466.7 151.59 465.61 152.89 465.43 154.31C464.99 157.63 464.99 161.01 464.73 165.71C455.41 157.2 445.93 153.31 435.21 152.91C424.38 152.51 415.08 156.53 406.6 165.4C406.6 161.86 406.88 159.86 406.49 157.99C406.27 156.92 404.95 156.08 404.13 155.13C403.23 156.03 401.74 156.82 401.57 157.84C401.18 160.12 401.45 162.51 401.45 163.16C393.33 164.49 385.94 165.7 378.55 166.9L378.58 166.89ZM416.68 216.92C410.69 214.74 404.06 211.45 397.05 209.98C386.82 207.83 384.1 205.57 382.89 194.99C382.74 193.64 381.26 192.44 380.4 191.17C379.53 192.51 377.74 194.03 377.95 195.17C378.98 200.51 380.56 205.74 382.03 211.3C373.77 213.74 366.81 219.18 362.69 230.43C358.9 224.87 356.25 220.85 353.43 216.94C352.62 215.82 351.32 215.05 350.24 214.11C349.62 215.58 348.12 217.42 348.55 218.47C350.16 222.43 352.4 226.14 354.46 230.05C351.33 233.32 348.01 233.25 344.37 230.05C337.86 224.32 335.37 214.14 338.7 205.29C342.51 195.16 351.77 185.44 360.18 187.03C361.09 193.81 361.77 200.52 363.02 207.11C363.33 208.75 365.46 210.05 366.76 211.51C367.22 209.66 368.16 207.77 368.03 205.96C367.82 203 366.71 200.12 366.35 197.16C363.99 178.12 381.37 164.16 399.24 170.58C402.13 171.62 403.11 172.84 402.83 176.2C402.46 180.67 402.95 185.34 403.91 189.74C404.32 191.6 406.89 192.98 408.47 194.58C408.61 192.52 409.35 190.27 408.78 188.42C405.9 179.03 408.12 170.48 415.37 164.61C425.23 156.62 440.43 156.18 453.16 163.53C463.4 169.45 465.63 175.75 463.3 191.21C463.09 192.58 464.38 194.17 464.97 195.65C466.07 194.68 468.03 193.79 468.12 192.74C468.65 186.51 469.41 180.17 468.71 174.02C468.35 170.83 468.75 169.29 471.15 167.69C480.28 161.63 489.89 161.19 499.67 165.61C509.51 170.06 516.1 177.61 516.14 188.65C516.16 195 513.54 201.34 512.33 207.73C511.98 209.57 512.42 211.55 512.5 213.47C514.07 212.3 516.42 211.46 517.05 209.91C518.98 205.14 521.09 200.17 521.54 195.14C522.03 189.65 524.73 186.87 529.17 184.86C538.64 180.58 550 185.4 554.36 195.55C558.82 205.93 554.27 217.48 544.11 221.37C543.49 219.27 543.06 217.1 542.23 215.1C539.88 209.43 535.92 205.36 529.79 204C528.61 203.74 527.12 204.84 525.77 205.32C526.52 206.52 527.07 207.93 528.07 208.86C528.88 209.62 530.3 209.69 531.31 210.29C536.93 213.62 538.91 218.9 538.55 225.06C538.22 230.58 533.79 235.37 527.8 236.49C522.47 237.49 515.99 238.48 512.93 233.2C508.45 225.49 502.64 220.21 493.95 217.74C499.89 208.83 496.92 197.44 503.77 189.34C503.88 189.21 503.96 188.91 503.89 188.77C503.24 187.52 502.56 186.28 501.88 185.04C500.88 185.76 499.58 186.28 498.95 187.24C497.94 188.76 497.38 190.57 497.02 191.38C494.33 190.19 492.27 189.27 490.21 188.36C490.41 190.51 490.04 192.94 490.92 194.76C496.98 207.25 490.4 218.52 476.39 219.71C468.33 207.15 455.36 205.37 441.56 205.1C442.45 199.26 441.33 193.42 446.05 188.79C447.61 187.26 448.14 184.54 448.71 182.25C448.92 181.42 447.92 179.47 447.4 179.44C446.28 179.38 444.64 179.92 444.05 180.78C442.8 182.61 442.09 184.8 440.8 187.64C439.57 185.47 439.13 184.03 438.17 183.18C436.89 182.05 435.2 181.37 433.68 180.5C433.63 182.23 433.21 184.05 433.61 185.66C434.34 188.54 436.11 191.22 436.48 194.1C437.05 198.59 437.62 203.43 432.86 206.5C427.32 210.08 421.78 213.64 416.7 216.91L416.68 216.92ZM452.91 239.6C452.29 237.84 452.18 236.99 451.73 236.37C450.49 234.63 449.11 233 447.79 231.32C447.36 233.38 446.88 235.44 446.54 237.52C446.45 238.06 446.85 238.66 446.97 239.25C449.91 253.82 442.71 265.59 428.3 269.36C424.46 270.36 420.44 271 416.49 271.14C398.65 271.74 388.38 259.32 393.43 243.71C393.97 242.06 393.17 239.97 393 238.09C391.51 239.34 389.99 240.55 388.53 241.84C388 242.31 387.62 242.96 387.79 242.75C385.8 241.09 384.06 239.64 382.32 238.2C382.17 240.72 381.83 243.25 381.96 245.75C382.01 246.82 383.14 247.81 383.61 248.9C385.63 253.56 387.75 258.18 389.41 262.97C389.74 263.91 388.47 265.87 387.42 266.75C376.65 275.73 355.82 272.15 348.59 260.12C345.22 254.51 345.08 248.69 348.36 243.04C351.4 237.81 355.61 234.16 361.71 234.29C363.38 239.18 364.59 243.79 366.59 248.03C367.28 249.49 369.93 250.04 371.68 251C371.52 249.18 371.93 247.03 371.1 245.6C365.91 236.67 367.68 226.33 375.68 220.39C385.29 213.27 400.32 213.26 410.06 220.16C413.59 222.66 415.56 225.38 415.14 230.07C414.82 233.55 415.41 237.32 416.55 240.63C417.2 242.51 419.77 243.72 421.48 245.23C421.53 243.31 422.08 241.24 421.54 239.5C418.17 228.68 421.11 217.93 429.65 213.72C441.29 207.98 453.18 209.49 464.22 215.3C474.26 220.59 474.83 230.45 474.05 240.43C473.99 241.23 473.95 242.03 473.9 242.83C473.61 247.09 475.1 251.03 479.37 251.53C482.43 251.89 486.1 250.22 488.85 248.44C490.15 247.6 489.95 244.41 490.42 242.28C488.73 243.05 487.05 243.85 485.34 244.58C483.81 245.23 482.25 245.81 480.7 246.42C480.22 245 479.41 243.6 479.33 242.15C479.08 237.59 478.89 233.01 479.15 228.46C479.24 226.93 480.39 224.66 481.65 224.12C490.73 220.25 502.19 224.72 506.79 233.61C512.76 245.14 507.28 260.58 494.64 265.67C481.24 271.06 467.99 269.48 455.48 262.28C451.82 260.17 450.65 257.56 451.69 252.87C452.73 248.16 453.8 244.3 458.08 241.62C459.5 240.73 460.57 238.95 461.23 237.34C461.64 236.33 460.99 234.89 460.82 233.64C459.59 233.86 458.03 233.7 457.2 234.39C455.72 235.62 454.68 237.38 452.91 239.59V239.6ZM393.31 269.06C412.18 280.92 430.62 278.94 448.06 263.36C451.57 266.62 451.79 267.6 448.54 270.07C446.74 271.44 444.08 271.63 442.18 272.91C440.98 273.72 439.53 276.54 439.8 276.8C442.98 279.88 440.47 282.85 438.61 283.83C434.6 285.95 429.97 286.91 425.57 288.28C423.81 288.83 420.82 288.76 420.41 289.78C417.86 296.13 415.99 302.74 413.64 309.17C413.15 310.52 411.66 312.27 410.45 312.43C407.67 312.78 404.77 312.27 401.63 312.08C402.05 309.47 402.79 307.81 402.47 306.39C401.17 300.75 404.63 298.43 408.71 295.99C411.23 294.49 413.48 292.3 415.33 290C416.32 288.77 416.2 286.64 416.58 284.92C414.93 285.37 413.2 285.66 411.65 286.33C410.81 286.7 410.29 287.76 409.58 288.46C399.58 298.26 379.58 301.54 366.98 295.47C358.68 291.47 356 283.59 360.35 275.61C372.22 277.85 383.7 277.59 393.32 269.04L393.31 269.06Z" fill="white"/>
</g>
<defs>
<clipPath id="clip0_619_121">
<rect width="656.75" height="651.52" fill="white"/>
</clipPath>
</defs>
</svg>
