<svg width="121" height="97" viewBox="0 0 121 97" fill="none" xmlns="http://www.w3.org/2000/svg">
<g clip-path="url(#clip0_413_17)">
<path fill-rule="evenodd" clip-rule="evenodd" d="M60.5367 14.0958C86.1009 14.0958 106.834 34.0979 106.834 58.7639C106.834 69.0346 103.238 78.4945 97.1952 86.0401H23.8782C17.8353 78.4945 14.2396 69.0346 14.2396 58.7639C14.2396 34.0979 34.9724 14.0958 60.5367 14.0958Z" fill="#E21F26"/>
<path fill-rule="evenodd" clip-rule="evenodd" d="M43.8918 33.6559C46.3564 33.6559 48.3568 36.1444 48.3568 39.2142C48.3568 42.2839 46.3564 44.7724 43.8918 44.7724C41.4272 44.7724 39.4269 42.2839 39.4269 39.2142C39.4269 36.1444 41.4272 33.6559 43.8918 33.6559ZM30.7833 57.1558C31.5688 57.8728 32.7522 57.744 33.412 56.8774L39.3431 49.1091V46.2725C39.2977 46.2238 39.2523 46.175 39.2 46.1298C38.4145 45.4163 37.2311 45.5416 36.5713 46.4082L30.5599 54.281C29.9001 55.1476 29.9978 56.4424 30.7833 57.1558ZM56.6862 56.8844C55.9007 57.5979 54.7173 57.4726 54.0575 56.6059L48.0496 48.7332C47.875 48.5069 47.7563 48.2529 47.6865 47.9849V46.8363C47.7842 46.4639 47.9797 46.1194 48.273 45.8548C49.0584 45.1414 50.2384 45.2667 50.9017 46.1333L56.9131 54.006C57.5729 54.8727 57.4751 56.1674 56.6897 56.8844H56.6862ZM38.3517 51.8551L40.1914 49.5058V46.5231H46.8382V48.9107L48.9293 51.8516V61.9067C48.9293 62.8638 48.2136 63.6434 47.3409 63.6434H39.9366C39.0638 63.6434 38.3482 62.8638 38.3482 61.9067V51.8516L38.3517 51.8551ZM40.345 65.3314C41.2876 65.3314 42.0556 66.1737 42.0556 67.2074V79.6395C42.0556 80.6732 41.2841 81.5155 40.345 81.5155C39.4059 81.5155 38.6344 80.6732 38.6344 79.6395V67.2074C38.6344 66.1772 39.4059 65.3314 40.345 65.3314ZM47.0197 65.3314C47.9623 65.3314 48.7303 66.1737 48.7303 67.2074V79.6395C48.7303 80.6732 47.9588 81.5155 47.0197 81.5155C46.0807 81.5155 45.3091 80.6732 45.3091 79.6395V67.2074C45.3091 66.1772 46.0807 65.3314 47.0197 65.3314ZM80.0162 36.9414C82.3028 36.9414 84.1565 39.249 84.1565 42.0994C84.1565 44.9499 82.3028 47.2575 80.0162 47.2575C77.7297 47.2575 75.8725 44.9464 75.8725 42.0994C75.8725 39.2524 77.7262 36.9414 80.0162 36.9414ZM70.266 59.0631C70.9747 59.6235 71.98 59.439 72.5002 58.6559L77.7995 50.6613C78.3196 49.8748 78.1625 48.7749 77.4539 48.2181C76.7417 47.6577 75.7363 47.8422 75.2162 48.6253L69.9169 56.6233C69.3967 57.4099 69.5538 58.5063 70.2625 59.0666L70.266 59.0631ZM90.3809 58.8473C89.6792 59.4216 88.6389 59.2789 88.0734 58.5341L82.3028 50.9259C81.7373 50.181 81.849 49.1021 82.5542 48.5278C83.2558 47.9535 84.2927 48.0963 84.8582 48.8411L90.6287 56.4493C91.1943 57.1941 91.0826 58.2731 90.3774 58.8473H90.3809ZM81.3603 50.3759L81.6744 51.3714L87.5008 69.8107C87.808 70.7748 86.7398 71.6658 85.8077 71.6658H74.3434C73.4113 71.6658 72.3466 70.7748 72.6503 69.8107L78.3441 51.796L78.7944 50.3794C79.6637 47.6299 80.4212 47.3967 81.3637 50.3794L81.3603 50.3759ZM76.7522 72.9919C77.6633 72.9919 78.4069 73.8063 78.4069 74.8052V80.1059C78.4069 81.1013 77.6633 81.9192 76.7522 81.9192C75.841 81.9192 75.0975 81.1048 75.0975 80.1059V74.8052C75.0975 73.8098 75.8445 72.9919 76.7522 72.9919ZM83.2489 72.9919C84.16 72.9919 84.9036 73.8063 84.9036 74.8052V80.1059C84.9036 81.1013 84.16 81.9192 83.2489 81.9192C82.3377 81.9192 81.5941 81.1048 81.5941 80.1059V74.8052C81.5941 73.8098 82.3377 72.9919 83.2489 72.9919ZM63.4307 63.6434L63.6122 64.2177L67.7281 74.8365C67.941 75.3899 67.365 75.905 66.8693 75.905H58.6865C58.093 75.905 57.3215 75.3725 57.538 74.8365L61.6957 64.4613L61.954 63.6434C62.4532 62.0598 62.8896 61.9275 63.4307 63.6434ZM62.9699 56.3414C64.1847 56.3414 65.1692 57.6013 65.1692 59.1536C65.1692 60.7059 64.1847 61.9693 62.9699 61.9693C61.755 61.9693 60.7706 60.7094 60.7706 59.1536C60.7706 57.5979 61.755 56.3414 62.9699 56.3414ZM61.1546 76.5593C61.6852 76.5593 62.1146 77.0327 62.1146 77.6104V80.6871C62.1146 81.2649 61.6817 81.7382 61.1546 81.7382C60.6275 81.7382 60.1946 81.2649 60.1946 80.6871V77.6104C60.1946 77.0327 60.6275 76.5593 61.1546 76.5593ZM64.5304 76.5593C65.061 76.5593 65.4904 77.0327 65.4904 77.6104V80.6871C65.4904 81.2649 65.0575 81.7382 64.5304 81.7382C64.0032 81.7382 63.5703 81.2649 63.5703 80.6871V77.6104C63.5703 77.0327 63.9997 76.5593 64.5304 76.5593ZM70.8525 59.801C70.5941 62.6271 68.2517 64.9625 65.1133 65.7108L64.1114 63.2362C66.391 62.8742 68.1714 61.4786 68.5764 59.7175L70.8525 59.7975V59.801ZM60.3307 65.5959C57.2308 64.6875 55.0035 62.2025 55.0035 59.2824C55.0035 58.9344 55.035 58.5898 55.0943 58.2557L57.2622 58.3984C57.2308 58.5828 57.2168 58.7708 57.2168 58.9622C57.2168 60.8938 58.868 62.5366 61.1511 63.1074L60.3307 65.5924V65.5959Z" fill="white"/>
<path fill-rule="evenodd" clip-rule="evenodd" d="M61.2627 30.5131C61.7515 30.5548 62.2193 30.6697 62.6521 30.8437L63.6994 29.0861L62.9873 30.9934C63.3259 31.1604 63.6401 31.3658 63.9229 31.6059L66.8553 29.2357L64.3976 32.0653C64.6944 32.396 64.9457 32.7719 65.1342 33.1756L67.1415 32.5839L65.2704 33.5028C65.4065 33.8612 65.4938 34.2406 65.5287 34.6304L70.3951 35.0446L65.5287 35.4588C65.4938 35.859 65.3995 36.2419 65.2634 36.6004L67.131 37.5296L65.1237 36.931C64.9352 37.3312 64.6874 37.7002 64.3941 38.0273L66.8518 40.8569L63.9194 38.4833C63.5423 38.7965 63.1164 39.0541 62.6487 39.242L63.2072 41.1945L62.303 39.3638C61.9714 39.4717 61.6223 39.5413 61.2558 39.5727L60.8264 44.2678L60.397 39.5727C59.9082 39.5309 59.4405 39.416 59.0076 39.2385L57.9603 40.9962L58.6759 39.0889C58.3373 38.9218 58.0231 38.7165 57.7369 38.4798L54.8045 40.8535L57.2621 38.0239C56.9654 37.6932 56.714 37.3173 56.5255 36.9136L54.5182 37.5053L56.3859 36.5864C56.2532 36.2279 56.1659 35.8521 56.1275 35.4588L51.2646 35.0446L56.1275 34.6304C56.1659 34.2302 56.2567 33.8473 56.3929 33.4854L54.5252 32.5596L56.529 33.1582C56.7175 32.7579 56.9654 32.389 57.2621 32.0619L54.8045 29.2322L57.7369 31.6024C58.1139 31.2892 58.5398 31.0282 59.0076 30.8402L58.449 28.8877L59.3532 30.7184C59.6883 30.6105 60.0374 30.5409 60.4005 30.5096L60.8299 25.8145L61.2593 30.5096L61.2627 30.5131Z" fill="#FDEB07"/>
<mask id="mask0_413_17" style="mask-type:luminance" maskUnits="userSpaceOnUse" x="24" y="86" width="75" height="11">
<path d="M98.6614 86.6074H24.0527V97H98.6614V86.6074Z" fill="white"/>
</mask>
<g mask="url(#mask0_413_17)">
<path fill-rule="evenodd" clip-rule="evenodd" d="M26.5872 91.6749V90.0009H24.7963L24.2692 89.1412H28.4269L28.9191 90.0009H27.6414V91.6471C27.6414 91.9603 27.5751 92.2283 27.439 92.4441C27.3342 92.6077 27.1387 92.7782 26.856 92.9488L28.4025 94.5463L27.994 94.9152L26.9677 93.8537C26.5208 93.3838 26.1682 92.9836 25.9134 92.6529C25.5853 92.2353 25.4212 91.9429 25.4212 91.7794C25.4212 91.5392 25.5469 91.4209 25.8017 91.4209C25.9204 91.4209 26.0845 91.4626 26.2939 91.5427L26.5837 91.6784L26.5872 91.6749ZM30.4412 90.0009V94.8456L29.3869 94.1078V90.0009H28.6468L28.0883 89.1412H31.2685L31.7608 90.0009H30.4377H30.4412ZM34.4872 93.0184C34.4209 93.1159 34.2812 93.2203 34.0718 93.3282C33.8553 93.4256 33.6354 93.4743 33.412 93.4743C33.0768 93.4743 32.7068 93.2968 32.3053 92.9383C31.8655 92.5451 31.6456 92.1483 31.6456 91.748V90.0009H31.0172L30.4586 89.1412H34.7141L35.2063 90.0113L32.651 90.0009L34.4872 91.5322L34.7351 91.8107V92.7782L34.4872 93.0219V93.0184ZM34.358 92.0474L32.6928 90.6621V91.9569C32.6928 92.1518 32.7173 92.3223 32.7662 92.4755C32.815 92.6286 32.9023 92.7052 33.0315 92.7052C33.1955 92.7052 33.3771 92.6564 33.5761 92.5555C33.775 92.4546 34.0334 92.2875 34.358 92.0474ZM36.8052 90.0009H33.9251L33.3666 89.1412H38.5856L39.0778 90.0009H37.856V91.2434C37.856 91.3861 37.842 91.4835 37.8106 91.5392C37.7827 91.5949 37.7303 91.6332 37.6535 91.6575C36.7738 91.7898 36.1559 91.9743 35.8033 92.2075C35.5066 92.3919 35.3564 92.639 35.3564 92.9453C35.3564 93.095 35.4437 93.2307 35.6148 93.3595C35.7858 93.4848 35.9604 93.5509 36.1419 93.5509C36.5294 93.5509 37.0112 93.4221 37.5872 93.1611C37.8176 93.0636 38.0759 92.9349 38.3587 92.7713L38.8299 93.5962C38.809 93.7215 38.5821 93.885 38.1527 94.0834C37.7233 94.2818 37.3253 94.3793 36.9588 94.3793C36.3304 94.3793 35.7649 94.1669 35.2622 93.7423C34.756 93.3177 34.5046 92.8513 34.5046 92.3432C34.5046 92.1344 34.557 91.9429 34.6617 91.762C34.8049 91.5148 35.0248 91.3339 35.3215 91.2155C35.4926 91.1494 35.7544 91.0693 36.1 90.9789C36.4491 90.8884 36.6795 90.8083 36.8017 90.7317V90.0043L36.8052 90.0009ZM35.8312 96.0081L37.3323 94.8909C37.4196 94.8248 37.4964 94.7899 37.5557 94.7899C37.5697 94.7969 37.5872 94.8039 37.6046 94.8108C37.6221 94.8178 37.6465 94.8317 37.6779 94.8561L37.8245 95.0579L38.9801 96.6903L38.5716 96.9826L37.7024 95.7575L36.4107 96.7181L35.8312 96.0081ZM42.1498 90.0009H40.7604V94.9013L39.7062 94.1948V89.9974H38.9766L38.418 89.1377H39.9854C39.9854 88.6504 39.8633 88.2537 39.6224 87.9439C39.378 87.6307 39.0953 87.4741 38.7671 87.4741C38.5262 87.4741 38.3342 87.5437 38.1841 87.6794C38.034 87.8151 37.9607 87.9926 37.9607 88.2154L37.9816 88.5704L37.3777 88.6365C37.266 88.5251 37.1752 88.3859 37.1054 88.2189C37.0356 88.0518 36.9972 87.9056 36.9972 87.7768C36.9972 87.4636 37.1368 87.1921 37.4126 86.9624C37.6884 86.7327 38.02 86.6144 38.411 86.6144C38.9417 86.6144 39.3885 86.8232 39.755 87.2409C40.1216 87.6585 40.3555 88.2919 40.4602 89.1377H41.5913L42.1498 89.9974V90.0009ZM40.7604 89.1412H46.9569L47.4491 90.0009H46.531V94.9118L45.4767 94.1739V93.1611L45.0054 93.3838C44.6319 93.5405 44.3317 93.6205 44.1083 93.6205C43.7068 93.6205 43.3368 93.4778 43.0016 93.1924C42.8061 93.0288 42.5757 92.7643 42.3069 92.3989L42.0835 91.9395C41.9858 91.6993 41.9194 91.5009 41.881 91.3443C41.881 91.2991 42.1289 91.1981 42.6246 91.038C43.1203 90.8744 43.3682 90.7143 43.3682 90.5508C43.3682 90.4394 43.3123 90.2932 43.2006 90.1122L43.1238 90.0009H41.3085L40.7604 89.1412ZM44.3107 91.3791C44.3107 91.4835 44.0803 91.6158 43.616 91.7759C43.1517 91.936 42.9213 92.103 42.9213 92.2736C42.9213 92.4232 43.0261 92.5451 43.2355 92.6321C43.3926 92.6843 43.5392 92.7121 43.6719 92.7121C43.9547 92.7121 44.3457 92.5903 44.8379 92.3397L45.4767 91.9708V89.9974H43.7627L44.0315 90.4672C44.22 90.857 44.3107 91.1598 44.3107 91.3756V91.3791ZM54.1378 92.7121C54.1168 92.7191 54.0505 92.7434 53.9423 92.7782C53.8341 92.8165 53.6944 92.8548 53.5234 92.9035L52.9299 92.9836C52.7589 92.9836 52.5634 92.914 52.3469 92.7713L51.8861 92.4267C51.7744 92.6216 51.5754 92.8235 51.2927 93.0393L51.0797 93.175L52.6262 94.8561L52.1549 95.2598C51.8407 94.9083 51.544 94.5637 51.2577 94.2226C50.975 93.8815 50.7201 93.5648 50.5002 93.269C50.2803 92.9732 50.1092 92.7086 49.9835 92.472C49.8614 92.2353 49.7985 92.0508 49.7985 91.9151C49.7985 91.8037 49.8334 91.7063 49.8998 91.6193C49.9661 91.5322 50.0569 91.4835 50.1686 91.4696C50.2803 91.4696 50.4339 91.5322 50.6294 91.661L50.8982 91.8629V90.0078H49.2854L48.7268 89.1481H54.1029L54.5951 90.0078H51.9524V91.8733L52.2003 91.9638C52.2806 91.9847 52.3783 91.9951 52.4901 91.9951C52.7519 91.9951 53.0277 91.9534 53.3174 91.8733C53.4605 91.8281 53.5967 91.7828 53.7328 91.7376C53.869 91.6923 54.0016 91.6401 54.1378 91.581V92.7191V92.7121ZM58.7424 90.0009V94.9118L57.6881 94.1739V93.2725C57.4926 93.443 57.2657 93.5927 57.0039 93.718C56.6897 93.8746 56.3999 93.9546 56.1311 93.9546C55.7052 93.9546 55.2549 93.7563 54.7801 93.363C54.3053 92.9697 54.068 92.5346 54.068 92.0578C54.068 91.6784 54.246 91.3443 54.6021 91.0589C54.9582 90.7735 55.3631 90.6273 55.8169 90.6273C56.0718 90.6273 56.2952 90.6587 56.4907 90.7178C56.6862 90.777 56.8991 90.8953 57.1295 91.0763C57.339 91.226 57.524 91.4139 57.6881 91.6436V90.0009H53.5094L52.9509 89.1412H59.5278L60.02 90.0009H58.7424ZM57.6881 92.2457V92.0996L57.3983 91.9221L57.0283 91.7446L56.557 91.5879C56.4662 91.567 56.3266 91.5531 56.1311 91.5531C55.8239 91.5531 55.5586 91.6645 55.3352 91.8873C55.1257 92.11 55.021 92.3676 55.021 92.6564C55.021 92.8061 55.0873 92.9314 55.2235 93.0358C55.3561 93.1263 55.5202 93.1715 55.7157 93.1715C55.8868 93.1715 56.2184 93.0497 56.7036 92.8026C56.8293 92.7365 56.9864 92.6495 57.1749 92.5451C57.3634 92.4406 57.5345 92.3397 57.6916 92.2457H57.6881ZM61.3187 90.0009V94.8456L60.2644 94.1078V90.0009H59.5243L58.9658 89.1412H62.146L62.6383 90.0009H61.3152H61.3187ZM66.7087 92.7121C66.6878 92.7191 66.6214 92.7434 66.5132 92.7782C66.405 92.8165 66.2654 92.8548 66.0943 92.9035L65.5008 92.9836C65.3298 92.9836 65.1343 92.914 64.9179 92.7713L64.457 92.4267C64.3453 92.6216 64.1464 92.8235 63.8636 93.0393L63.6506 93.175L65.1971 94.8561L64.7259 95.2598C64.4117 94.9083 64.1149 94.5637 63.8287 94.2226C63.5459 93.8815 63.2911 93.5648 63.0711 93.269C62.8512 92.9732 62.6801 92.7086 62.5545 92.472C62.4323 92.2353 62.3695 92.0508 62.3695 91.9151C62.3695 91.8037 62.4009 91.7063 62.4707 91.6193C62.537 91.5322 62.6278 91.4835 62.7395 91.4696C62.8512 91.4696 63.0048 91.5322 63.2003 91.661L63.4691 91.8629V90.0078H61.8563L61.2977 89.1481H66.6773L67.1695 90.0078H64.5269V91.8733L64.7747 91.9638C64.8585 91.9847 64.9528 91.9951 65.0645 91.9951C65.3263 91.9951 65.6021 91.9534 65.8918 91.8733C66.035 91.8281 66.1711 91.7828 66.3073 91.7376C66.4399 91.6923 66.5761 91.6401 66.7087 91.581V92.7191V92.7121ZM70.0356 90.0009L69.477 89.1412H70.7198L71.212 90.0009H70.0356ZM70.8315 93.4152C70.6744 93.5579 70.4196 93.718 70.0705 93.892C69.7214 94.0695 69.4596 94.1565 69.285 94.1565C68.8591 94.1565 68.353 93.9477 67.763 93.537C67.2603 93.175 66.8763 92.8096 66.6075 92.4406L67.4942 92.023C67.7106 91.9325 67.8642 91.8525 67.955 91.7794L67.18 91.2573C66.8274 90.9893 66.6529 90.6552 66.6529 90.248C66.6529 89.8651 66.789 89.5658 67.0613 89.35C67.3336 89.1342 67.7141 89.0298 68.1994 89.0298C68.5484 89.0298 68.9325 89.2456 69.3409 89.6772C69.5434 89.893 69.697 90.1087 69.8017 90.3176C69.9064 90.5299 69.9588 90.7491 69.9588 90.9719C69.9588 91.3721 69.7354 91.7654 69.285 92.1448C69.0616 92.3223 68.6846 92.5625 68.154 92.8583C68.154 92.9383 68.1609 93.0114 68.1749 93.0776C68.1889 93.1437 68.2203 93.1924 68.2692 93.2342C68.318 93.276 68.3704 93.3073 68.4298 93.3282C68.4891 93.349 68.5659 93.3595 68.6532 93.3595C68.908 93.3595 69.2431 93.2237 69.6621 92.9557L70.828 92.0195V93.4117L70.8315 93.4152ZM68.3564 91.4661C68.5519 91.3617 68.709 91.212 68.8277 91.0206C68.9464 90.8048 69.0058 90.589 69.0058 90.3733C69.0058 90.2236 68.9569 90.1018 68.8591 90.0043C68.7614 89.9069 68.6357 89.8582 68.4786 89.8582C68.2692 89.8582 68.0876 89.9278 67.934 90.0705C67.7804 90.2132 67.7036 90.3941 67.7036 90.6169C67.7036 90.8396 67.8153 91.038 68.0388 91.2294L68.353 91.4626L68.3564 91.4661ZM69.7354 89.1447H75.9318L76.424 90.0043H75.5059V94.9152L74.4517 94.1774V93.1646L73.9804 93.3873C73.6068 93.5439 73.3066 93.624 73.0832 93.624C72.6817 93.624 72.3117 93.4813 71.9766 93.1959C71.7811 93.0323 71.5507 92.7678 71.2819 92.4024L71.0584 91.9429C70.9607 91.7028 70.8944 91.5044 70.856 91.3478C70.856 91.3025 71.1038 91.2016 71.5995 91.0415C72.0953 90.8779 72.3466 90.7178 72.3466 90.5542C72.3466 90.4429 72.2907 90.2967 72.179 90.1157L72.1022 90.0043H70.2869L69.7389 89.1447H69.7354ZM73.2857 91.3826C73.2857 91.487 73.0553 91.6193 72.591 91.7794C72.1267 91.9395 71.8963 92.1065 71.8963 92.2771C71.8963 92.4267 72.001 92.5485 72.2105 92.6356C72.3676 92.6878 72.5142 92.7156 72.6468 92.7156C72.9296 92.7156 73.3206 92.5938 73.8128 92.3432L74.4517 91.9743V90.0009H72.7376L73.0064 90.4707C73.1949 90.8605 73.2857 91.1633 73.2857 91.3791V91.3826ZM78.5186 90.0043L77.9601 89.1447H79.4263C79.4053 89.0994 79.3599 89.0089 79.2901 88.8767C79.2517 88.8036 79.2133 88.7096 79.1679 88.5982C79.1365 88.4973 79.1156 88.3998 79.1016 88.3163C79.0876 88.2293 79.0807 88.1284 79.0807 88.01C79.0807 87.6098 79.2238 87.2931 79.5135 87.0599C79.7998 86.8267 80.1803 86.7084 80.6516 86.7084C81.1229 86.7084 81.664 86.9137 82.3412 87.3244C82.9312 87.6724 83.4129 88.0448 83.7865 88.4416L83.5735 88.8105C83.186 88.4695 82.7671 88.1806 82.3238 87.9509C81.8804 87.7212 81.4685 87.6063 81.0845 87.6063C80.7005 87.6063 80.4386 87.7142 80.2431 87.9265C80.0476 88.1388 79.9534 88.4347 79.9534 88.8001V89.1447H80.9867L81.5557 90.0043H80.2885V94.9048L79.2343 94.1983V90.0009H78.5186V90.0043ZM80.1559 89.1447H86.1603L86.6525 90.0043H85.71V94.9152L84.6557 94.1774V92.8374H82.8614V93.3177C82.8614 93.45 82.8474 93.5439 82.823 93.5892C82.7985 93.6379 82.7322 93.6623 82.6275 93.6623C82.5472 93.6623 82.4145 93.5996 82.2365 93.4743C82.0515 93.3247 81.8769 93.175 81.7198 93.0114C81.5627 92.8548 81.4545 92.7295 81.3952 92.6425C81.3044 92.5068 81.2625 92.378 81.2625 92.2527C81.2625 92.0682 81.3777 91.9777 81.6081 91.9777H81.8106V90.0009H80.7249L80.1524 89.1412L80.1559 89.1447ZM82.8684 91.9812H84.6627V90.0043H82.8684V91.9812ZM89.0404 95.6183L88.0315 94.1113H87.829C87.5392 94.1113 87.2879 94.0173 87.0854 93.8293C86.8829 93.6414 86.7782 93.4152 86.7782 93.1507C86.7782 92.994 86.8271 92.8444 86.9283 92.7052C87.0296 92.5625 87.1483 92.4929 87.2809 92.4929C87.4066 92.4929 87.5532 92.6007 87.7173 92.8165L87.9302 93.1507L88.5132 92.8131C88.7611 92.6564 88.9147 92.5137 88.9845 92.3745L87.6056 91.6924C87.2181 91.3965 87.0226 91.0693 87.0226 90.7178C87.0226 90.5542 87.0819 90.3872 87.2006 90.2132L87.3787 90.0009H86.2825L85.7239 89.1412H90.8766L91.3688 90.0009H89.8014C89.9585 90.1366 90.0807 90.2584 90.1714 90.3698C90.4193 90.683 90.5415 90.9997 90.5415 91.3234C90.5415 91.9186 90.2727 92.4928 89.7351 93.0462C89.4977 93.2864 89.0997 93.5857 88.5377 93.9407L89.564 95.3329L89.0404 95.6148V95.6183ZM89.4872 91.0519C89.4872 90.7248 89.4209 90.4498 89.2847 90.2271L89.0822 90.0043H88.7017C88.5761 90.0496 88.4539 90.1401 88.3422 90.2723C88.2514 90.3976 88.2095 90.5508 88.2095 90.7317C88.2095 90.9928 88.3422 91.2573 88.6145 91.5253C88.7995 91.7098 89.0089 91.8559 89.2428 91.9603L89.4209 91.5253C89.4663 91.3896 89.4872 91.2364 89.4872 91.0554V91.0519ZM92.2206 90.0009V94.8456L91.1664 94.1078V90.0009H90.4263L89.8677 89.1412H93.048L93.5402 90.0009H92.2171H92.2206ZM96.4901 92.4024H95.146C95.0657 92.4024 95.0239 92.4998 95.0239 92.6912V92.8374C95.0239 92.9801 95.0064 93.088 94.968 93.1611C94.9296 93.2342 94.8388 93.2725 94.6887 93.2725C94.5246 93.2725 94.2803 93.081 93.9556 92.6982C93.631 92.3153 93.4669 92.0334 93.4669 91.8559C93.4669 91.7585 93.5088 91.6819 93.5891 91.6262C93.6729 91.5705 93.7671 91.5357 93.8788 91.5218H96.4901V90.0009H92.7373L92.1787 89.1412H98.0051L98.4974 90.0009H97.5443V94.8456L96.4901 94.1078V92.4024Z" fill="#1B1918"/>
</g>
<mask id="mask1_413_17" style="mask-type:luminance" maskUnits="userSpaceOnUse" x="0" y="0" width="121" height="86">
<path d="M121 0.013916H0V85.5006H121V0.013916Z" fill="white"/>
</mask>
<g mask="url(#mask1_413_17)">
<path fill-rule="evenodd" clip-rule="evenodd" d="M15.8908 81.2057L6.3291 85.1908L5.78451 83.8961L11.192 75.7658L3.68645 78.8947L3.17677 77.6835L12.7385 73.6984L13.2831 74.9966L7.8756 83.1269L15.3812 79.998L15.8908 81.2092V81.2057ZM12.3091 72.5882L1.351 70.8166L1.0438 69.3444L10.3297 63.1144L10.6474 64.6388L7.81625 66.4487L8.70644 70.7087L12.0089 71.1681L12.3056 72.5882H12.3091ZM7.53348 70.5451L6.81085 67.096L4.21707 68.7353C3.42812 69.2295 2.77182 69.6159 2.25167 69.9013C2.94288 69.9013 3.63059 69.9535 4.3218 70.0544L7.53348 70.5451ZM10.4764 60.431L1.33005 60.6433L1.41035 64.0471L0.195494 64.075L0 55.8959L1.21485 55.8681L1.29514 59.272L10.4414 59.0597L10.4729 60.431H10.4764ZM10.6788 54.02L0.394478 52.7183L0.569026 51.3574L10.8499 52.6591L10.6753 54.02H10.6788ZM6.02539 49.2309C4.37417 48.7575 3.20819 47.9396 2.53094 46.7876C1.8537 45.6321 1.71755 44.3583 2.1225 42.9591C2.38781 42.0403 2.84513 41.2781 3.49794 40.669C4.14726 40.0599 4.92225 39.6736 5.81942 39.5135C6.71311 39.3534 7.66265 39.416 8.65408 39.7014C9.66296 39.9903 10.5078 40.4532 11.185 41.0901C11.8658 41.7271 12.3021 42.4753 12.4941 43.335C12.6896 44.1982 12.6617 45.0613 12.4103 45.9245C12.1381 46.8607 11.6703 47.6299 11.007 48.2355C10.3437 48.8411 9.56522 49.2239 8.67153 49.3771C7.78134 49.5302 6.89813 49.4815 6.02539 49.2309ZM6.44081 47.877C7.63821 48.2216 8.67502 48.1728 9.55125 47.7273C10.424 47.2818 11.0035 46.5753 11.2863 45.6043C11.5725 44.6158 11.4573 43.7039 10.9476 42.8652C10.4345 42.0264 9.54078 41.4243 8.2596 41.0553C7.4497 40.8221 6.70263 40.756 6.0219 40.8535C5.34116 40.9544 4.75468 41.2189 4.27293 41.647C3.78769 42.0786 3.45256 42.6215 3.26055 43.2758C2.99175 44.2051 3.07902 45.0961 3.52587 45.9523C3.97271 46.805 4.9397 47.4489 6.43732 47.877H6.44081ZM14.4456 39.5518L5.26436 34.7592L5.91717 33.5167L15.6465 32.476L8.43764 28.7137L9.04856 27.5512L18.2333 32.3438L17.5805 33.5898L7.85116 34.6304L15.06 38.3928L14.4491 39.5553L14.4456 39.5518ZM18.8407 31.2788L13.8137 21.4117L14.8261 20.298L25.3478 24.1021L24.3005 25.2576L21.1657 24.0464L18.2402 27.2762L19.8182 30.2068L18.8442 31.2857L18.8407 31.2788ZM17.6817 26.2286L20.0486 23.6148L17.193 22.4941C16.3272 22.153 15.6255 21.8502 15.0879 21.5962C15.4929 22.153 15.8594 22.7377 16.1841 23.3538L17.6817 26.2286ZM26.1752 23.4686L19.5005 15.5645L20.5547 14.6805L26.4475 21.6588L30.3469 18.3872L31.1288 19.313L26.1787 23.4686H26.1752ZM39.1895 14.8406L35.4507 5.20327L36.7318 4.70904L38.2748 8.68023L43.2704 6.75554L41.7274 2.78436L43.0121 2.29013L46.7509 11.9275L45.4662 12.4217L43.7068 7.88669L38.7112 9.81485L40.4706 14.3499L39.1895 14.8441V14.8406ZM49.0689 11.5446L47.2606 1.3713L54.6265 0.0661284L54.8394 1.25992L48.8245 2.32494L49.3796 5.45038L55.0105 4.45497L55.2234 5.64876L49.5925 6.64417L50.2104 10.1107L56.4662 9.00391L56.6792 10.1977L49.0654 11.5446H49.0689ZM57.4751 10.2151L61.741 0L63.2491 0.0417653L67.173 10.4901L65.6125 10.4483L64.5024 7.28457L60.1387 7.16276L58.9273 10.2604L57.4716 10.2186L57.4751 10.2151ZM60.5751 6.05945L64.1079 6.16039L63.1095 3.26466C62.8093 2.3841 62.5824 1.66017 62.4288 1.0859C62.2682 1.75414 62.0587 2.41195 61.8004 3.05931L60.5786 6.05945H60.5751ZM68.1819 10.8659L69.9413 0.682167L71.2958 0.915357L69.7423 9.90535L74.7623 10.7685L74.5563 11.9623L68.1784 10.8659H68.1819ZM77.5586 13.17L80.7947 4.63943L77.597 3.4352L78.0263 2.30057L85.703 5.19282L85.2736 6.32745L82.0759 5.12321L78.8432 13.6538L77.5551 13.17H77.5586ZM83.4443 15.3975L88.9461 6.64069L90.112 7.3681L87.8464 10.9773L92.3847 13.8104L94.6503 10.2012L95.8163 10.9286L90.3145 19.6854L89.1485 18.958L91.7388 14.8371L87.1971 12.0041L84.6068 16.1249L83.4408 15.3975H83.4443ZM98.1901 26.3818L106.554 20.2771L107.769 21.9303L103.297 28.2229C102.878 28.8076 102.564 29.2392 102.351 29.5246C102.725 29.3993 103.283 29.2218 104.02 28.9921L111.309 26.7542L112.395 28.2299L104.03 34.3346L103.252 33.2731L110.248 28.1638L101.465 30.8367L100.735 29.8413L106.094 22.2331L98.9686 27.4329L98.1901 26.3713V26.3818ZM105.06 36.5586L114.231 31.7417L114.873 32.9529L105.703 37.7698L105.06 36.5551V36.5586ZM109.811 38.3893L110.349 39.5622C109.878 39.7919 109.522 40.0669 109.281 40.3906C109.04 40.7108 108.904 41.1284 108.862 41.64C108.824 42.1517 108.904 42.6842 109.099 43.2376C109.274 43.7318 109.501 44.139 109.78 44.4627C110.059 44.7864 110.363 44.9952 110.684 45.0892C111.005 45.1831 111.32 45.1762 111.62 45.0718C111.924 44.9639 112.161 44.7829 112.325 44.5253C112.489 44.2678 112.58 43.9093 112.59 43.4429C112.597 43.1471 112.552 42.5136 112.451 41.5391C112.349 40.5681 112.332 39.872 112.395 39.4439C112.475 38.894 112.66 38.4415 112.943 38.0865C113.222 37.7315 113.589 37.4739 114.039 37.3139C114.535 37.1398 115.048 37.1189 115.572 37.2477C116.102 37.3765 116.57 37.6654 116.982 38.1248C117.394 38.5807 117.719 39.1376 117.949 39.7954C118.204 40.5159 118.312 41.1945 118.274 41.828C118.239 42.4614 118.043 43.0044 117.694 43.4638C117.345 43.9197 116.888 44.2608 116.322 44.4836L115.788 43.2793C116.381 42.9974 116.769 42.6076 116.947 42.1134C117.129 41.6192 117.083 40.9962 116.818 40.2479C116.542 39.4682 116.196 38.9497 115.785 38.6921C115.373 38.438 114.964 38.3789 114.559 38.5216C114.21 38.6434 113.966 38.8731 113.826 39.2072C113.69 39.5344 113.683 40.2653 113.819 41.3964C113.952 42.5276 113.997 43.3211 113.959 43.7736C113.896 44.4314 113.714 44.9674 113.407 45.378C113.103 45.7887 112.688 46.0846 112.164 46.269C111.644 46.4535 111.103 46.4779 110.538 46.3386C109.972 46.2029 109.466 45.9036 109.016 45.4372C108.565 44.9708 108.216 44.3931 107.968 43.697C107.658 42.8164 107.525 42.0333 107.574 41.3477C107.619 40.662 107.843 40.0599 108.241 39.5379C108.639 39.0158 109.159 38.6329 109.805 38.3858L109.811 38.3893ZM113.013 48.232L113.288 49.4919C112.779 49.6172 112.374 49.8121 112.07 50.0766C111.77 50.3412 111.543 50.717 111.396 51.2078C111.253 51.6985 111.215 52.238 111.292 52.8192C111.358 53.3378 111.494 53.7833 111.697 54.1592C111.903 54.5351 112.154 54.8031 112.447 54.9632C112.744 55.1233 113.048 55.1825 113.365 55.1442C113.686 55.1024 113.955 54.9736 114.172 54.7578C114.388 54.5421 114.549 54.2079 114.66 53.759C114.73 53.4701 114.821 52.8401 114.929 51.8691C115.037 50.898 115.167 50.2124 115.32 49.8086C115.516 49.2866 115.792 48.8829 116.141 48.5975C116.49 48.3086 116.905 48.1346 117.376 48.0754C117.897 48.0093 118.403 48.0963 118.891 48.3329C119.38 48.5696 119.778 48.9525 120.085 49.4884C120.393 50.021 120.588 50.6335 120.675 51.3226C120.773 52.0814 120.735 52.767 120.564 53.3796C120.393 53.9887 120.089 54.4829 119.649 54.8553C119.213 55.2277 118.692 55.4644 118.092 55.5653L117.823 54.2741C118.462 54.1244 118.923 53.8251 119.202 53.3796C119.481 52.9341 119.572 52.318 119.471 51.528C119.366 50.7066 119.139 50.1288 118.79 49.7912C118.441 49.4536 118.054 49.3109 117.628 49.3666C117.261 49.4119 116.971 49.5859 116.765 49.8817C116.563 50.1741 116.402 50.8841 116.294 52.0187C116.182 53.1534 116.06 53.9365 115.928 54.3715C115.729 55.0015 115.435 55.4853 115.051 55.8229C114.667 56.1605 114.2 56.3623 113.648 56.4319C113.1 56.5015 112.569 56.411 112.046 56.1605C111.522 55.9099 111.089 55.5096 110.747 54.9597C110.405 54.4098 110.189 53.7694 110.094 53.0385C109.976 52.1127 110.014 51.3192 110.206 50.6614C110.398 50.0001 110.74 49.4606 111.243 49.0325C111.742 48.6044 112.332 48.3399 113.016 48.2355L113.013 48.232ZM110.635 58.9065L121 59.0075L120.986 60.3788L110.621 60.2778L110.635 58.9065ZM115.757 63.2362C117.446 63.5529 118.682 64.256 119.467 65.3384C120.253 66.4243 120.508 67.6807 120.239 69.1112C120.061 70.0509 119.677 70.8514 119.087 71.5231C118.497 72.1914 117.764 72.6473 116.884 72.891C116.008 73.1346 115.058 73.1624 114.043 72.9745C113.009 72.7796 112.126 72.4002 111.389 71.8329C110.653 71.2656 110.147 70.5591 109.871 69.7203C109.595 68.878 109.543 68.0149 109.707 67.1343C109.888 66.1772 110.279 65.3662 110.887 64.698C111.491 64.0332 112.231 63.5808 113.103 63.3406C113.976 63.1039 114.859 63.0691 115.753 63.2362H115.757ZM115.47 64.6214C114.245 64.3917 113.219 64.5379 112.388 65.0634C111.56 65.589 111.051 66.3477 110.866 67.3396C110.674 68.3525 110.873 69.2469 111.463 70.037C112.053 70.8236 112.999 71.3387 114.308 71.5823C115.135 71.7389 115.886 71.732 116.553 71.5684C117.223 71.4048 117.778 71.0846 118.218 70.6113C118.658 70.1344 118.944 69.5637 119.07 68.8954C119.248 67.9452 119.076 67.0647 118.549 66.2572C118.022 65.4498 116.999 64.9033 115.47 64.6179V64.6214ZM108.422 73.7193L117.907 77.8889L117.338 79.1732L107.699 80.8612L115.142 84.1328L114.612 85.3335L105.127 81.164L105.696 79.8797L115.334 78.1917L107.891 74.9201L108.422 73.7193Z" fill="#1B1918"/>
</g>
</g>
<defs>
<clipPath id="clip0_413_17">
<rect width="121" height="97" fill="white"/>
</clipPath>
</defs>
</svg>
