<svg width="59" height="59" viewBox="0 0 59 59" fill="none" xmlns="http://www.w3.org/2000/svg">
<path d="M5.71105 55.1929C4.18551 55.1929 2.74102 55.1929 1.29653 55.1929C0.314472 55.1929 0.00142009 54.8894 0.00142009 53.9312C-0.000169012 38.2334 -0.00334721 22.5355 0.00300918 6.8377C0.00459828 2.93032 2.89676 0.0113051 6.78528 0.00812711C19.3916 -0.00140696 31.9979 -0.00140696 44.6042 0.00812711C48.1272 0.0113051 50.8144 2.37893 51.3404 5.89065C51.7949 8.92566 49.7592 12.0592 46.7113 13.0062C46.3919 13.1048 46.0646 13.1779 45.7102 13.2716V22.3703C45.9073 22.1907 46.063 22.0588 46.206 21.9158C48.016 20.1091 49.8021 18.2786 51.6376 16.4989C53.9989 14.2091 57.8175 15.1609 58.7933 18.2563C59.2017 19.5482 58.9935 20.7527 58.2863 21.8968C58.1497 22.1192 58.048 22.3973 58.0305 22.6547C57.7524 26.7877 56.0616 30.274 52.9025 33.1009C51.7583 34.1242 50.7175 35.2572 49.6639 36.3742C49.524 36.522 49.3715 36.6491 49.1983 36.8065C48.7724 36.3504 48.3688 35.9182 47.9254 35.4415C48.0382 35.3223 48.1828 35.1682 48.3306 35.0172C50.0167 33.2852 51.7536 31.5993 53.3728 29.8069C54.5535 28.4991 55.2623 26.891 55.7072 25.1812C55.7374 25.0668 55.7676 24.9508 55.7867 24.8348C55.7946 24.7824 55.774 24.7268 55.7581 24.614C55.5849 24.7713 55.4387 24.8968 55.3036 25.0319C52.2335 28.1003 49.1681 31.175 46.0868 34.2323C45.777 34.5405 45.6689 34.8456 45.6689 35.2699C45.68 42.7033 45.6768 50.1351 45.6768 57.5685C45.6768 58.7428 45.421 58.9986 44.2514 58.9986C31.8835 58.9986 19.5139 58.9986 7.146 58.9986C5.96689 58.9986 5.71105 58.7459 5.71105 57.5796C5.71105 56.8089 5.71105 56.0399 5.71105 55.1929ZM7.73079 13.3368V57.0346H43.8033V36.6253C43.7159 36.5983 43.7191 36.5983 43.6333 36.5713C43.5173 36.735 43.4156 36.9113 43.2757 37.0512C40.6442 39.6969 37.9777 42.3092 35.3874 44.9962C34.4117 46.0068 33.2596 46.8347 31.9788 47.4068C30.8426 47.9152 29.7334 48.4905 28.6354 49.08C27.9441 49.4502 27.3116 49.6473 26.6585 48.786C25.9101 49.5678 25.2188 50.2892 24.5927 50.9439C24.1271 50.5196 23.6901 50.1224 23.1212 49.6044C23.8856 48.9084 24.6277 48.2346 25.4047 47.5259C24.6722 46.9602 24.7739 46.3898 25.1187 45.7304C25.9609 44.1143 26.7443 42.4665 27.5754 40.8441C27.7645 40.4755 28.0109 40.137 28.3017 39.8415C29.9988 38.1158 31.715 36.4076 33.4249 34.6931C33.5647 34.5517 33.6966 34.4023 33.9286 34.1528H11.5446V32.4049H12.2931C19.9303 32.4049 27.5675 32.4049 35.2047 32.4001C35.4335 32.4001 35.7323 32.4208 35.8769 32.2937C36.4791 31.7677 37.0337 31.1877 37.7377 30.4981H11.5446V28.5913C11.8275 28.5913 12.0643 28.5913 12.301 28.5913C21.2079 28.5913 30.1148 28.5881 39.0217 28.5992C39.4269 28.5992 39.7209 28.4991 40.0085 28.202C41.1447 27.0245 42.3191 25.8852 43.4473 24.6998C43.6333 24.5043 43.7858 24.1214 43.7874 23.8512C43.8128 20.5191 43.8033 17.1885 43.8033 13.8564V13.3368H7.73079ZM11.4715 11.4299C11.6892 11.4299 11.8402 11.4299 11.9896 11.4299C22.8924 11.4299 33.7952 11.4315 44.698 11.422C45.1667 11.422 45.6514 11.3568 46.1027 11.2281C48.3577 10.5894 49.8419 8.3409 49.5209 6.09722C49.1713 3.64696 47.2199 1.9213 44.7345 1.91971C33.792 1.91176 22.8495 1.91494 11.9069 1.91653C11.7798 1.91653 11.6527 1.9356 11.4985 1.94831C14.0395 5.11839 14.0379 8.2408 11.4699 11.4299H11.4715ZM11.4239 5.7095C11.1664 4.54317 10.6245 3.64061 9.75053 2.96528C8.20275 1.77034 6.49447 1.53517 4.73057 2.38847C2.89993 3.27355 2.02116 4.8133 2.02116 6.84088C2.01798 22.116 2.01957 37.3912 2.02116 52.6664C2.02116 52.8571 2.03864 53.0462 2.04659 53.2209H5.82546C5.82546 50.4402 5.82546 47.7055 5.82546 44.9724C5.82546 32.9865 5.82546 20.999 5.82546 9.01306C5.82546 6.7948 6.92035 5.7095 9.15621 5.7095C9.88719 5.7095 10.6198 5.7095 11.4254 5.7095H11.4239ZM33.3629 44.1684C35.3906 42.1392 37.4549 40.0735 39.4508 38.0777C38.3829 37.0083 37.2721 35.896 36.2535 34.8742C34.2369 36.8891 32.1711 38.9532 30.1545 40.9665C31.2018 42.0105 32.3062 43.1117 33.3645 44.1668L33.3629 44.1684ZM49.6226 21.509C45.6625 25.4689 41.6914 29.4398 37.7902 33.3424C38.0253 33.6173 38.3161 33.959 38.5402 34.2211C42.5368 30.228 46.4984 26.2681 50.4505 22.3179C50.174 22.0493 49.8546 21.7379 49.621 21.509H49.6226ZM51.9871 23.8322C48.0144 27.8047 44.048 31.7709 40.0816 35.7371C40.355 36.0088 40.6696 36.325 40.9397 36.5935C44.9093 32.6242 48.8757 28.6564 52.8421 24.6918C52.5703 24.4185 52.2557 24.1023 51.9887 23.8322H51.9871ZM54.3946 23.3205C55.0096 22.704 55.6643 22.0477 56.3159 21.3899C56.4541 21.25 56.5939 21.1054 56.7084 20.9449C57.3758 20.0233 57.3043 18.7791 56.5415 17.9322C55.7803 17.0868 54.482 16.7992 53.5778 17.4745C52.6101 18.1991 51.7837 19.1128 50.9542 19.8883C52.1429 21.0737 53.2473 22.1748 54.3946 23.3205ZM28.8451 42.6048C28.3779 43.5359 27.8996 44.4877 27.4229 45.4412C27.0733 46.1403 27.1866 46.7505 27.763 47.2717C27.7916 47.2971 27.8313 47.3114 27.9012 47.3511C29.1598 46.7219 30.439 46.0831 31.6944 45.4554C30.7203 44.4814 29.7986 43.5582 28.8451 42.6048ZM7.68629 11.2695C9.45814 11.0343 11.1267 9.36264 11.3333 7.61949C10.4195 7.61949 9.50899 7.59566 8.60161 7.62744C8.05179 7.64651 7.71331 7.98973 7.69583 8.53953C7.66722 9.44686 7.68788 10.3558 7.68788 11.2679L7.68629 11.2695Z" fill="#FBE5DA"/>
</svg>
