<svg width="65" height="59" viewBox="0 0 65 59" fill="none" xmlns="http://www.w3.org/2000/svg">
<g clip-path="url(#clip0_249_46)">
<path d="M0 39.8199C0.11 39.3499 0.2 38.8799 0.32 38.4199C1.45 34.1699 5.09 31.2499 9.47 31.1399C11.92 31.0799 14.37 31.1299 16.89 31.1299C17.02 33.6599 17.97 35.8199 19.77 37.6299C16.9 38.5799 14.7 40.2799 13.15 42.8199C11.6 45.3499 11.39 48.1399 11.58 51.0599C7.54 50.8899 3.75 49.9899 0 48.8799C0 45.8599 0 42.8399 0 39.8199Z" fill="#FBE5DA"/>
<path d="M39.18 51.99C39.18 53.31 39.15 54.63 39.2 55.95C39.22 56.46 39.02 56.69 38.58 56.88C36.1 57.98 33.49 58.53 30.82 58.81C25.02 59.41 19.39 58.59 13.84 56.9C13.42 56.77 13.24 56.6 13.25 56.13C13.28 53.68 13.25 51.23 13.27 48.78C13.32 43.6 17.01 39.45 22.16 39.06C24.94 38.85 27.77 38.88 30.55 39.1C35.11 39.46 39.02 43.53 39.16 48.11C39.2 49.41 39.16 50.7 39.16 52H39.18V51.99Z" fill="#FBE5DA"/>
<path d="M48.17 23.5899C50.85 23.5899 53.47 23.3799 56.03 23.6399C60.48 24.0899 64.04 28.0099 64.26 32.5099C64.39 35.2499 64.31 37.9999 64.29 40.7399C64.29 40.9399 64.01 41.2199 63.79 41.3199C61.55 42.3699 59.17 42.9099 56.73 43.2199C55.7 43.3499 54.66 43.4199 53.53 43.5199C53.53 42.8299 53.51 42.2299 53.53 41.6299C53.74 35.8599 49.99 31.4899 45.55 30.0899C45.49 30.0699 45.44 30.0299 45.32 29.9699C47.08 28.1799 48.04 26.0399 48.16 23.5999L48.17 23.5899Z" fill="#FBE5DA"/>
<path d="M41.02 51.17C41.02 50.48 41.02 49.87 41.02 49.27C41.02 43.74 38.23 39.7 33.07 37.75C32.99 37.72 32.92 37.68 32.78 37.62C34.54 35.83 35.5 33.71 35.63 31.2C35.76 31.17 35.88 31.13 35.99 31.13C38.15 31.13 40.31 31.09 42.46 31.15C47.41 31.28 51.59 35.44 51.72 40.39C51.79 43.03 51.73 45.67 51.76 48.31C51.76 48.73 51.53 48.85 51.24 48.98C48.95 50.02 46.53 50.58 44.05 50.88C43.07 51 42.09 51.06 41 51.16L41.02 51.17Z" fill="#FBE5DA"/>
<path d="M25.77 16.52C21.13 16.4 17.49 12.66 17.62 8.13003C17.74 3.53003 21.52 -0.149966 25.97 3.35732e-05C30.59 0.160034 34.2 3.87003 34.11 8.36003C34.01 12.93 30.23 16.63 25.77 16.51V16.52Z" fill="#FBE5DA"/>
<path d="M18.64 30.84C18.64 26.65 22.03 23.24 26.22 23.24C30.39 23.24 33.81 26.63 33.84 30.82C33.87 35 30.42 38.46 26.21 38.45C22.02 38.45 18.64 35.05 18.64 30.85V30.84Z" fill="#FBE5DA"/>
<path d="M13.38 30.57C8.77 30.79 5.16 27.08 5.31 22.71C5.45 18.58 8.84 15.35 12.97 15.4C17.13 15.45 20.47 18.79 20.47 22.93C20.47 23.18 20.33 23.51 20.14 23.67C18.51 25.12 17.44 26.89 17 29.05C16.96 29.26 16.76 29.49 16.57 29.6C15.47 30.25 14.26 30.55 13.38 30.56V30.57Z" fill="#FBE5DA"/>
<path d="M58.94 14.89C58.93 20.65 53.59 24.36 48.69 22.47C48.31 22.32 48.11 22.14 48.03 21.69C47.6 19.11 46.3 17.05 44.16 15.54C43.84 15.31 43.76 15.08 43.78 14.7C43.97 11.5 46.5 8.59997 49.73 7.90997C53.1 7.18997 56.57 8.83997 58.12 11.91C58.67 12.99 58.94 14.14 58.93 14.89H58.94Z" fill="#FBE5DA"/>
<path d="M38.81 30.7201C37.88 30.5001 36.94 30.3001 36.03 30.0301C35.82 29.9701 35.58 29.6601 35.54 29.4301C35.1 26.8401 33.83 24.7701 31.7 23.2501C31.25 22.9301 31.2 22.6001 31.26 22.1401C31.67 18.6001 34.6 15.7001 38.04 15.4301C41.87 15.1301 45.19 17.4201 46.16 21.0401C47.44 25.8301 43.83 30.5601 38.82 30.7201H38.81Z" fill="#FBE5DA"/>
<path d="M29.83 22.1301C27.11 21.0701 24.53 21.1801 21.91 22.4901C21.81 20.6201 21.32 18.9201 20.13 17.2301C24.01 16.9701 27.71 16.9801 31.56 17.2301C30.49 18.7901 29.94 20.3501 29.82 22.1301H29.83Z" fill="#FBE5DA"/>
</g>
<defs>
<clipPath id="clip0_249_46">
<rect width="64.34" height="59" fill="white"/>
</clipPath>
</defs>
</svg>
