<svg width="60" height="59" viewBox="0 0 60 59" fill="none" xmlns="http://www.w3.org/2000/svg">
<g clip-path="url(#clip0_249_31)">
<path d="M59.03 11.06V13.37C58.9 14 58.8 14.65 58.63 15.27C57.48 19.33 54.92 22.13 50.99 23.66C50.83 23.72 50.68 23.79 50.49 23.86C53.15 31.49 52.5 38.83 48.62 45.86C46.57 49.57 43.72 52.56 40.09 54.84C39.77 54.35 39.49 53.9 39.17 53.41C39.64 53.08 40.1 52.77 40.54 52.44C45.68 48.59 48.76 43.46 49.94 37.18C50.74 32.96 50.4 28.81 48.95 24.76C48.8 24.35 48.63 24.22 48.21 24.3C47.78 24.38 47.34 24.38 46.84 24.42C49.39 30.7 49.07 36.86 46.09 42.86C43.81 47.45 40.37 50.96 35.75 53.25C27.03 57.58 16.12 55.42 9.41001 48.06C2.74001 40.75 1.68001 29.73 6.72001 21.44C11.61 13.41 23.29 7.35999 34.59 12.15C34.64 11.61 34.73 11.09 34.72 10.56C34.72 10.4 34.48 10.16 34.3 10.09C31.69 9.08999 28.99 8.59999 26.19 8.61999C14.9 8.65999 4.71001 16.68 2.32001 27.66C-0.0499871 38.51 4.67001 48.45 13.99 53.91C18.47 56.54 23.33 57.7 28.52 57.12C30.32 56.92 32.07 56.35 33.84 55.94C34 55.9 34.16 55.83 34.38 55.76C34.58 56.29 34.77 56.8 34.96 57.31C27.34 60.54 15.82 59.47 7.39001 51.01C-1.33999 42.26 -1.95999 28.99 3.56001 19.78C9.46001 9.94999 22.49 3.72999 35.13 8.51999C35.34 7.98999 35.52 7.43999 35.77 6.92999C37.73 2.96999 40.99 0.81999 45.28 0.10999C45.45 0.0799902 45.61 0.0299902 45.77 -0.0100098H48.19C48.35 0.0299902 48.52 0.0799902 48.68 0.10999C50.98 0.44999 53.01 1.35999 54.77 2.92999C54.39 3.36999 54.03 3.77999 53.67 4.19999C48.54 -0.15001 41.75 1.78999 38.61 5.65999C35.38 9.63999 35.6 15.52 39.19 19.36C42.73 23.13 48.67 23.76 52.78 20.79C55 19.18 56.41 17.01 57.01 14.35C57.74 11.1 57.01 8.15999 54.91 5.51999C55.36 5.14999 55.78 4.79999 56.2 4.45999C57.15 5.42999 58.11 7.20999 58.55 8.88999C58.74 9.60999 58.86 10.34 59.02 11.07L59.03 11.06ZM24.7 53.46C30.23 53.48 34.45 52.21 37.85 49.99C46.13 44.58 48.8 32.99 44.95 24.56C44.79 24.21 44.55 24.15 44.25 24.08C39.16 22.82 36.04 19.62 34.79 14.54C34.74 14.32 34.54 14.07 34.34 13.97C32.1 12.9 29.72 12.26 27.24 12.2C19.51 12.01 13.34 15.12 8.81001 21.35C5.57001 25.8 4.67001 30.84 5.55001 36.24C6.22001 40.37 7.82001 44.08 10.74 47.14C14.87 51.46 20.03 53.36 24.7 53.47V53.46Z" fill="#FBE5DA"/>
<path d="M38.39 55.8C37.8 56.09 37.31 56.33 36.75 56.61C36.51 56.08 36.28 55.59 36.03 55.05C36.53 54.8 37.01 54.56 37.56 54.27C37.83 54.77 38.1 55.26 38.39 55.8Z" fill="#FBE5DA"/>
<path d="M52.87 14.7799H49.48V18.1699H44.09V14.7799H40.7V9.54991H44.09V6.15991H49.48V9.54991H52.87V14.7799ZM45.94 11.2399H42.55V12.9299H45.94V16.3199H47.63V12.9299H51.02V11.2399H47.63V7.84991H45.94V11.2399Z" fill="#FBE5DA"/>
<path d="M42.4 6C42.47 8 42.75 7.69 40.71 7.63V6H42.4Z" fill="#FBE5DA"/>
<path d="M39.75 39.8901C39.75 43.8401 36.81 46.8301 32.9 46.8401C29.01 46.8501 26.03 43.8501 26.02 39.9101C26.02 35.9701 28.97 32.9801 32.88 32.9701C36.77 32.9501 39.75 35.9501 39.75 39.8901ZM38.03 39.8901C38.03 36.9201 35.78 34.6701 32.86 34.7201C29.9 34.7601 27.73 36.9801 27.75 39.9601C27.77 42.8801 30 45.1201 32.9 45.1101C35.84 45.1101 38.04 42.8701 38.03 39.8901Z" fill="#FBE5DA"/>
<path d="M21.91 23.1699C22.33 22.7699 22.73 22.3899 23.12 22.0099C25.57 24.1099 25.78 28.2899 23.55 31.1499C21.33 34.0099 17.17 34.5999 14.21 32.4799C11.17 30.3099 10.33 26.1899 12.3 23.1399C14.21 20.1799 18.36 18.9599 21.13 20.5899C20.9 21.0799 20.66 21.5699 20.43 22.0599C17.21 21.1199 14.62 22.0999 13.43 24.6699C12.36 26.9799 13.21 29.7899 15.39 31.1899C17.54 32.5699 20.37 32.1799 22.03 30.2699C23.6 28.4599 24.06 25.4599 21.9 23.1699H21.91Z" fill="#FBE5DA"/>
<path d="M30.38 24.2299C30.38 22.7599 31.46 21.6499 32.9 21.6499C34.32 21.6499 35.4 22.7499 35.42 24.1799C35.44 25.6299 34.33 26.7499 32.89 26.7499C31.46 26.7499 30.39 25.6699 30.38 24.2199V24.2299ZM32.89 23.3899C32.45 23.3899 32.11 23.7499 32.11 24.1999C32.11 24.6899 32.46 25.0299 32.94 25.0099C33.39 24.9899 33.72 24.6299 33.71 24.1799C33.7 23.7299 33.34 23.3799 32.9 23.3899H32.89Z" fill="#FBE5DA"/>
<path d="M19.83 41.52C19.84 42.99 18.75 44.1 17.31 44.1C15.89 44.1 14.81 43 14.79 41.57C14.78 40.1 15.86 39.01 17.32 39.01C18.76 39.01 19.82 40.07 19.83 41.52ZM18.11 41.52C18.1 41.06 17.77 40.74 17.3 40.75C16.84 40.75 16.51 41.09 16.51 41.55C16.51 42.02 16.9 42.39 17.35 42.37C17.79 42.35 18.12 41.99 18.1 41.53L18.11 41.52Z" fill="#FBE5DA"/>
<path d="M15.74 24.3899C16.12 24.7899 16.5 25.1899 16.88 25.5899C16.27 26.6599 16.31 27.3999 17.02 28.0599C17.68 28.6799 18.42 28.6899 19.42 28.0599C19.79 28.4599 20.16 28.8599 20.54 29.2599C19.48 30.5499 17.22 30.6099 15.84 29.3299C14.41 28.0099 14.35 25.6999 15.75 24.3799L15.74 24.3899Z" fill="#FBE5DA"/>
<path d="M11.3 32.95V34.6399H9.60999V32.95H11.3Z" fill="#FBE5DA"/>
<path d="M26.85 17.3999H28.54V19.0899H26.85V17.3999Z" fill="#FBE5DA"/>
<path d="M40.7 31.0999V29.4099H42.39V31.0999H40.7Z" fill="#FBE5DA"/>
<path d="M23.46 48.5001V46.8101H25.15V48.5001H23.46Z" fill="#FBE5DA"/>
<path d="M35.38 42.3001C34.94 41.8801 34.56 41.5101 34.18 41.1501C34.77 40.0301 34.74 39.3001 34.09 38.6701C33.45 38.0401 32.71 38.0201 31.65 38.6101C31.3 38.2301 30.94 37.8301 30.53 37.3901C31.27 36.6901 32.17 36.2901 33.26 36.4601C34.74 36.6801 35.73 37.5401 36.21 38.9501C36.63 40.2201 36.25 41.3101 35.38 42.3101V42.3001Z" fill="#FBE5DA"/>
</g>
<defs>
<clipPath id="clip0_249_31">
<rect width="59.03" height="59" fill="white"/>
</clipPath>
</defs>
</svg>
